<?xml version="1.0" standalone="no"?>
<!DOCTYPE svg PUBLIC "-//W3C//DTD SVG 20010904//EN"
 "http://www.w3.org/TR/2001/REC-SVG-20010904/DTD/svg10.dtd">
<svg version="1.0" xmlns="http://www.w3.org/2000/svg"
 width="600.000000pt" height="600.000000pt" viewBox="0 0 600.000000 600.000000"
 preserveAspectRatio="xMidYMid meet">
<g transform="translate(0.000000,600.000000) scale(0.066667,-0.066667)"
fill="#1a46b8" stroke="none">
<path d="M3383 7292 c-33 -15 -107 -42 -163 -61 -103 -34 -131 -54 -413 -282
-248 -202 -547 -589 -610 -790 -13 -42 -60 -151 -105 -241 -44 -91 -91 -203
-105 -248 -13 -45 -42 -120 -64 -165 -43 -90 -41 -49 -30 -570 5 -239 9 -272
44 -367 22 -58 44 -156 50 -218 8 -88 25 -141 76 -247 104 -215 103 -330 -2
-274 -159 85 -195 101 -224 101 -41 0 -136 -64 -130 -89 2 -10 -2 -14 -10 -10
-19 12 -102 -85 -130 -151 -16 -38 -22 -109 -22 -247 0 -221 -3 -227 -127
-275 -79 -30 -203 -133 -203 -168 0 -12 -6 -18 -13 -14 -27 17 -65 -95 -54
-157 46 -274 704 -828 1372 -1156 504 -246 699 -308 1397 -439 298 -56 1245
-30 1646 44 574 107 1477 540 1864 895 20 19 71 61 111 93 252 200 457 464
457 587 0 120 -173 312 -327 363 l-85 29 -8 224 c-9 254 -16 273 -145 399
-120 117 -161 120 -317 21 -125 -78 -149 -3 -56 172 58 109 98 246 98 332 0
31 23 124 51 207 l51 149 -7 349 c-7 339 -8 353 -49 455 -23 57 -54 142 -69
187 -14 45 -32 89 -38 98 -26 34 -119 223 -119 242 0 11 -7 20 -17 20 -9 0
-12 11 -7 24 14 36 -67 211 -143 308 -22 28 -91 118 -152 201 -212 283 -543
547 -790 631 -66 22 -116 46 -112 53 13 21 -146 14 -225 -10 -41 -12 -114 -22
-162 -22 -90 0 -149 -21 -195 -70 -14 -15 -41 -41 -58 -57 -93 -86 -102 -131
-51 -242 20 -45 37 -92 37 -103 0 -12 17 -59 38 -104 64 -142 48 -136 -141 54
-79 79 -200 146 -313 171 l-111 24 -96 -48 c-64 -33 -129 -84 -197 -156 -299
-317 -268 -291 -336 -279 -94 17 -94 29 -8 161 29 43 60 104 70 135 9 31 29
84 44 117 59 135 39 245 -50 268 -15 4 -24 14 -18 23 22 35 -127 106 -225 106
-51 0 -125 10 -166 22 -95 29 -135 28 -208 -5z m159 -243 c-79 -106 18 -161
116 -66 29 28 64 52 77 52 14 0 37 10 53 22 39 29 125 30 137 0 17 -44 -188
-172 -275 -172 -44 0 -50 -5 -50 -39 0 -40 0 -40 89 -30 93 11 115 0 99 -48
-23 -75 -377 -132 -428 -70 -32 38 -90 28 -90 -16 0 -45 -37 -64 -77 -39 -23
14 -31 11 -51 -20 -33 -50 -17 -71 35 -45 22 12 70 22 105 22 36 0 95 8 131
17 113 28 143 -51 32 -86 -18 -5 -36 -15 -40 -21 -38 -55 -207 -85 -371 -65
l-79 9 0 92 c0 52 10 110 23 134 12 24 22 50 22 57 0 26 147 216 194 250 77
56 104 4 46 -90 -42 -69 -40 -121 3 -114 23 3 36 18 43 50 29 143 232 350 274
280 9 -14 2 -36 -18 -64z m2173 3 c66 -67 135 -187 135 -236 0 -29 63 -70 77
-48 12 19 7 36 -41 142 -65 142 -28 150 97 23 127 -128 170 -212 179 -340 9
-140 -3 -150 -176 -150 -178 0 -418 120 -359 179 12 12 254 -22 324 -45 72
-23 73 -22 41 39 -19 37 -28 42 -52 29 -56 -30 -90 -19 -90 30 0 50 -32 61
-70 23 -48 -48 -349 -19 -421 40 -57 47 -22 90 65 79 63 -8 87 -6 97 9 18 30
6 40 -86 67 -114 33 -230 112 -230 157 0 38 62 47 114 16 29 -17 61 -31 71
-31 10 0 45 -22 77 -49 44 -36 74 -48 116 -48 67 0 70 11 20 85 -85 125 -4
145 112 29z m-1655 3 c-5 -5 -10 -1 -10 10 0 11 5 16 10 10 5 -5 5 -14 0 -20z
m-1175 -367 c5 -18 -1 -60 -13 -94 -35 -99 -30 -129 22 -129 57 0 67 -18 46
-84 -20 -60 -64 -66 -72 -10 -5 35 -33 48 -33 15 0 -10 -5 -44 -10 -76 -9 -56
-9 -57 34 -47 24 6 51 19 59 30 20 24 181 85 232 88 53 2 55 -42 5 -87 -97
-85 -131 -112 -161 -126 -113 -52 -162 -65 -221 -61 -71 6 -85 -12 -67 -86 13
-49 50 -46 126 10 147 109 140 -6 -10 -153 -136 -133 -306 -204 -329 -136 -3
10 -14 27 -25 37 -54 55 -63 289 -15 390 11 22 24 61 30 86 9 45 74 103 92 85
11 -11 10 -86 -1 -142 -12 -56 9 -84 55 -73 37 9 37 12 35 150 -3 214 182 560
221 413z m3421 -2 c123 -117 199 -351 160 -488 -13 -45 -11 -51 22 -63 33 -13
37 -23 37 -90 l0 -75 -55 0 -54 0 36 -35 c61 -60 89 -62 87 -6 -5 103 19 394
33 409 21 20 76 -57 100 -142 58 -199 58 -278 0 -399 -22 -47 -29 -74 -18 -77
87 -30 80 -125 -9 -125 -43 0 -45 2 -45 68 0 65 -2 67 -46 67 -124 0 -421 274
-361 334 13 13 25 13 44 2 14 -9 56 -34 94 -56 l68 -39 27 52 c37 67 15 99
-59 86 -50 -8 -205 38 -263 77 -192 130 -224 240 -51 175 46 -17 96 -31 112
-31 16 0 36 -13 44 -28 14 -27 87 -56 101 -42 4 4 3 37 -3 74 l-10 67 -36 -37
c-46 -46 -70 -38 -83 27 -13 64 -7 74 50 74 51 0 50 -8 18 191 -12 74 6 83 60
30z m-1671 -71 l8 -82 41 63 c55 85 119 64 142 -45 8 -41 9 -41 29 -12 26 38
57 26 80 -30 30 -70 -11 -119 -98 -119 -75 0 -98 -39 -27 -48 73 -9 80 -52 16
-107 -92 -80 -94 -80 416 -73 l473 7 52 -58 c69 -74 60 -164 -13 -136 -43 16
-77 -27 -57 -72 28 -61 22 -97 -18 -115 -51 -23 -57 -65 -39 -250 9 -88 15
-218 13 -288 -2 -70 2 -259 8 -420 l11 -292 52 -45 c32 -29 51 -59 51 -82 0
-39 68 -121 100 -121 45 0 71 -153 32 -192 -14 -14 -332 -18 -1342 -18 l-1324
0 -30 33 c-58 61 -43 114 52 184 75 56 81 65 82 125 0 42 6 50 43 57 69 14 75
65 88 681 13 585 12 615 -17 615 -54 0 -74 38 -47 88 35 68 26 116 -20 111
-84 -10 -102 71 -33 145 l44 47 432 -2 c238 -1 466 -7 508 -14 113 -18 119 16
12 85 -44 30 -46 86 -2 116 31 22 31 25 7 51 -43 48 -3 153 58 153 34 0 97 62
97 96 0 105 110 71 120 -36z m580 -85 c-5 -5 -10 -1 -10 10 0 11 5 16 10 10 6
-5 6 -14 0 -20z m-2875 -711 c8 -14 21 -71 29 -125 8 -57 27 -117 46 -143 25
-35 29 -57 21 -99 -11 -62 33 -51 70 18 28 52 188 201 225 208 39 7 32 -98 -9
-144 -12 -13 -22 -30 -22 -38 0 -49 -206 -231 -262 -231 -13 0 -23 -7 -23 -15
0 -8 6 -15 13 -15 31 0 28 -45 -6 -82 -42 -45 -47 -86 -15 -113 19 -15 25 -12
36 17 8 20 32 61 53 92 21 32 39 60 39 64 0 4 13 20 28 35 16 16 31 37 35 48
4 11 17 15 32 10 31 -12 32 -69 3 -141 -13 -29 -23 -65 -23 -80 0 -14 -14 -42
-31 -61 -86 -100 -114 -128 -142 -143 -41 -23 -45 -60 -8 -70 68 -18 19 -109
-63 -118 l-42 -5 46 -50 c60 -66 93 -58 115 27 46 175 112 332 139 327 49 -10
56 -374 9 -422 -11 -10 -24 -35 -30 -55 -7 -19 -28 -53 -47 -74 -42 -44 -44
-59 -13 -71 48 -18 7 -155 -46 -155 -18 0 -19 -5 -4 -30 11 -16 31 -30 45 -30
14 0 33 -13 42 -30 28 -52 45 -33 45 53 0 257 77 493 118 363 67 -210 69 -340
9 -510 -24 -66 -24 -74 -1 -99 36 -40 29 -86 -17 -120 -39 -28 -40 -30 -11
-41 16 -6 52 -20 81 -31 68 -27 69 -23 47 111 -28 163 -36 344 -15 357 23 15
104 -67 104 -105 0 -18 8 -40 18 -50 54 -54 88 -305 51 -380 -37 -74 -32 -103
19 -103 81 0 82 -96 2 -108 -52 -8 -77 14 -71 61 3 31 -3 33 -123 36 -84 3
-128 10 -132 22 -4 11 -15 19 -25 19 -10 0 -31 10 -47 22 -147 112 -194 153
-232 206 -84 115 -57 128 98 50 130 -66 176 -69 169 -13 -4 33 -17 44 -82 65
-123 40 -243 144 -322 279 -113 194 -84 246 63 111 90 -83 99 -86 128 -49 36
47 23 71 -62 115 -117 61 -187 155 -259 347 -84 221 -25 271 96 83 67 -104 68
-105 110 -51 43 55 40 64 -42 136 -113 97 -177 257 -185 464 -7 169 35 146
140 -74 26 -56 41 -71 65 -68 47 7 44 46 -8 123 -56 83 -75 199 -60 369 12
150 46 188 91 104z m4528 -34 c46 -147 38 -255 -27 -388 -67 -138 -70 -151
-41 -175 32 -26 96 69 136 201 30 101 108 59 83 -46 -7 -33 -14 -90 -14 -127
0 -37 -14 -97 -30 -133 -17 -36 -30 -72 -30 -80 0 -24 -74 -113 -130 -155
l-52 -40 -53 28 c-29 15 -73 51 -96 79 -24 29 -47 48 -51 44 -12 -12 16 -132
52 -223 19 -45 37 -105 41 -131 10 -66 25 -72 79 -32 57 42 60 88 7 88 -27 0
-42 11 -53 39 -29 77 63 113 100 39 9 -18 21 -38 26 -43 11 -11 59 40 107 115
102 159 138 123 85 -82 -42 -163 -163 -327 -282 -384 -56 -27 -66 -39 -62 -70
9 -74 47 -76 120 -6 105 100 125 111 148 84 15 -19 13 -34 -14 -81 -17 -32
-41 -75 -52 -95 -64 -124 -210 -259 -299 -276 -75 -14 -101 -33 -101 -73 0
-38 62 -55 82 -23 4 7 28 18 52 23 24 6 52 20 62 31 52 64 125 14 78 -53 -106
-153 -294 -271 -448 -282 l-106 -7 -31 51 c-75 123 -55 329 52 542 37 75 47
82 75 54 24 -24 8 -351 -20 -409 -36 -76 -19 -87 72 -48 27 12 63 26 80 31 28
10 27 12 -12 40 -45 33 -55 94 -18 108 12 5 22 25 22 45 0 20 -10 45 -22 55
-13 10 -23 37 -23 60 0 23 -12 57 -27 76 -27 32 -27 37 -1 147 15 63 28 129
28 147 0 77 103 187 106 114 1 -15 7 -80 15 -146 8 -66 18 -163 23 -214 9 -91
36 -125 56 -73 4 12 24 24 43 27 36 5 58 57 24 57 -54 0 -87 123 -41 155 31
22 31 23 4 51 -127 131 -185 522 -84 566 39 17 45 75 14 121 -23 33 -46 176
-31 191 19 19 64 -20 113 -98 27 -43 58 -92 69 -108 10 -17 23 -42 28 -57 13
-37 25 -33 55 20 33 59 33 74 -2 74 -42 0 -67 39 -57 87 7 38 2 45 -46 62 -57
21 -169 126 -205 193 -82 153 -97 211 -60 223 9 3 79 -58 157 -136 l141 -142
20 70 c11 39 24 94 29 123 4 29 17 66 28 82 12 16 21 49 21 72 0 108 57 121
88 21z m-3712 -34 c18 -47 9 -1030 -11 -1101 -43 -162 -152 -163 -183 -1 -5
29 -15 60 -22 69 -48 60 -56 580 -10 699 52 136 70 193 70 228 0 71 134 162
156 106z m2930 -26 c19 -27 34 -61 34 -74 0 -36 62 -223 85 -258 24 -35 28
-370 6 -484 -7 -39 -21 -119 -31 -178 -36 -227 -173 -289 -205 -93 -5 32 -15
61 -22 66 -19 11 -17 1006 3 1042 25 48 91 37 130 -21z m-3551 -48 c20 -51 20
-48 -21 -75 -44 -29 -114 5 -114 55 0 60 114 76 135 20z m1488 -1721 c45 -63
69 -101 86 -138 8 -17 28 -47 45 -68 l30 -37 1 122 c0 152 36 207 97 146 20
-20 23 -61 20 -266 l-4 -242 -43 -5 c-45 -5 -115 44 -115 80 0 10 -10 27 -22
37 -13 10 -23 30 -24 43 0 14 -17 45 -37 70 l-37 45 0 -110 c0 -155 -57 -222
-121 -144 -39 47 -29 441 12 482 45 46 71 43 112 -15z m645 25 c67 -32 111
-93 91 -124 -23 -37 -63 -38 -110 -3 -57 41 -134 42 -134 1 0 -20 13 -32 41
-39 23 -5 63 -18 89 -30 26 -12 51 -21 56 -21 88 0 103 -178 22 -255 -126
-120 -417 -3 -342 137 20 37 66 26 117 -27 45 -47 142 -46 149 3 4 29 -90 82
-146 82 -12 0 -44 22 -72 48 -136 132 56 316 239 228z m452 -37 c22 -34 40
-71 40 -82 0 -11 10 -40 23 -66 12 -25 32 -67 45 -92 12 -26 22 -56 22 -68 0
-12 11 -38 24 -58 37 -57 23 -105 -32 -110 -39 -4 -52 4 -83 53 -58 90 -172
88 -226 -4 -34 -56 -110 -74 -127 -30 -9 21 46 179 72 210 7 8 12 28 12 45 0
17 9 45 21 61 11 16 25 51 31 78 6 27 17 49 24 49 8 0 14 9 14 20 0 75 89 71
140 -6z m-1921 -184 c140 -153 192 -261 202 -419 6 -99 7 -101 44 -91 42 10
64 -12 65 -65 0 -24 11 -33 49 -39 27 -3 61 -12 76 -18 17 -8 -4 36 -60 121
-173 264 -194 304 -162 316 86 33 342 -240 385 -409 22 -91 34 -106 64 -82 37
31 68 8 68 -51 0 -50 2 -52 37 -36 26 13 54 13 101 1 79 -20 104 -1 48 37 -75
50 -336 325 -336 353 0 77 398 -135 427 -228 6 -16 16 -30 23 -30 7 0 17 -19
22 -41 14 -61 54 -107 109 -123 60 -17 62 -2 8 55 -144 151 -168 199 -108 211
26 5 162 -91 239 -169 64 -65 64 -65 124 -3 55 56 198 160 221 160 8 0 15 7
15 15 0 8 10 15 23 15 58 0 -48 -187 -139 -244 -10 -7 -19 -27 -19 -44 0 -30
2 -30 27 -7 16 14 43 25 60 25 19 0 33 9 33 22 0 99 155 262 335 351 257 128
173 -30 -170 -318 -45 -38 -18 -68 38 -43 47 22 122 23 135 3 5 -8 16 -15 26
-15 12 0 12 5 -1 18 -52 52 -9 115 56 82 54 -26 61 -20 61 49 0 105 106 259
264 386 144 114 187 74 81 -73 -25 -34 -45 -67 -45 -74 0 -15 -99 -159 -130
-190 -11 -11 -20 -26 -20 -34 0 -19 26 -18 37 1 6 8 34 15 63 15 47 0 52 4 45
31 -13 51 4 74 57 74 48 0 48 0 49 79 1 106 18 186 43 207 12 10 21 24 21 32
0 41 196 252 234 252 27 0 28 -74 0 -130 -11 -23 -30 -66 -43 -95 -12 -29 -29
-69 -38 -90 -9 -21 -34 -66 -55 -101 -43 -70 -30 -81 36 -33 23 18 68 34 100
37 81 7 196 33 232 53 38 20 107 13 115 -12 16 -47 -198 -190 -361 -241 -102
-32 -134 -32 -210 -1 -49 20 -69 2 -70 -60 0 -35 2 -36 113 -29 174 11 192
-38 37 -99 -37 -15 -90 -36 -117 -48 -79 -34 -291 -28 -365 10 -72 37 -103 29
-103 -23 0 -33 6 -38 51 -38 155 0 208 -71 80 -107 -165 -46 -521 -2 -521 65
0 7 -17 12 -39 12 -88 0 -6 -83 118 -120 45 -13 56 -23 56 -53 0 -85 -105 -55
-262 76 -113 94 -253 134 -285 82 -6 -8 -26 -15 -46 -15 -21 0 -37 -6 -37 -13
0 -42 -250 -193 -292 -177 -41 16 -24 91 22 98 21 2 48 13 60 24 12 11 38 24
56 30 20 6 34 22 34 38 0 40 -21 48 -54 22 -121 -94 -414 -123 -584 -57 -62
23 -7 78 93 93 60 8 73 16 77 43 7 49 -29 56 -96 20 -106 -57 -301 -40 -486
40 -21 9 -49 20 -64 25 -14 4 -26 22 -26 39 0 28 9 30 120 30 l120 0 0 53 c0
60 5 59 -91 28 -148 -49 -588 173 -530 267 10 16 86 15 104 -1 18 -17 158 -47
219 -47 24 0 69 -17 100 -37 80 -55 100 -48 56 18 -43 65 -98 180 -98 205 0 9
-17 50 -37 92 -75 152 -27 186 86 62z m-1315 -80 c32 -39 134 -146 227 -238
167 -165 193 -208 149 -245 -24 -20 -71 15 -226 167 -124 121 -174 124 -112 7
10 -18 23 -100 30 -183 7 -83 17 -177 22 -210 11 -77 -31 -105 -181 -119 -210
-20 -334 -61 -265 -86 8 -3 57 -46 111 -95 147 -138 268 -243 326 -284 246
-176 219 -158 460 -303 312 -186 949 -441 1103 -441 17 0 62 -10 100 -22 115
-35 226 -54 402 -68 92 -8 210 -21 263 -29 118 -20 494 -20 575 -1 33 8 127
19 210 24 82 6 176 19 208 31 32 11 78 20 103 20 25 0 84 11 130 24 46 13 121
33 166 45 133 35 451 142 540 181 157 70 188 83 210 96 12 7 53 27 90 46 302
147 716 447 1040 752 79 75 75 79 -136 100 -273 28 -274 29 -274 198 0 79 10
170 23 216 13 45 22 110 19 145 l-4 64 -110 -109 c-142 -140 -172 -160 -212
-139 -49 27 -40 40 134 207 91 86 189 191 219 231 45 61 62 74 94 70 45 -5 44
4 10 -199 -13 -75 -30 -200 -38 -278 -8 -78 -18 -163 -22 -187 -14 -83 14 -92
417 -141 81 -10 114 -30 115 -71 0 -41 -440 -440 -667 -605 -58 -42 -119 -87
-135 -100 -17 -13 -54 -36 -83 -52 -29 -16 -63 -36 -75 -44 -65 -41 -234 -139
-261 -151 -17 -8 -42 -20 -54 -28 -137 -83 -708 -300 -792 -301 -19 0 -50 -8
-68 -17 -33 -18 -162 -46 -347 -74 -58 -9 -129 -24 -158 -33 -70 -23 -1155
-21 -1212 2 -22 9 -88 23 -145 31 -175 25 -343 60 -359 76 -8 8 -32 15 -53 15
-57 0 -390 111 -518 172 -25 11 -56 25 -68 29 -12 5 -33 15 -45 22 -12 7 -73
37 -135 68 -161 79 -277 145 -282 161 -3 7 -14 13 -24 13 -10 0 -52 24 -93 53
-40 28 -79 52 -87 52 -7 0 -42 24 -77 53 -36 28 -69 52 -74 52 -6 0 -20 8 -31
19 -25 22 -37 32 -134 109 -137 109 -164 133 -319 289 -206 206 -215 249 -56
263 117 10 335 38 380 48 31 7 34 15 27 64 -5 30 -18 137 -30 236 -13 99 -31
235 -40 304 -27 189 0 217 99 98z m4263 -128 c45 -45 3 -104 -66 -90 -35 6
-53 71 -26 98 16 16 73 11 92 -8z m-3625 -241 c44 -34 87 -71 96 -80 47 -55
527 -342 603 -361 19 -4 38 -14 43 -22 4 -7 19 -13 33 -13 14 0 46 -11 71 -24
24 -13 85 -37 135 -54 49 -16 111 -39 137 -51 26 -11 60 -21 77 -21 16 0 58
-10 93 -22 35 -13 86 -23 113 -23 26 0 71 -9 99 -21 40 -16 427 -43 583 -41
186 3 442 24 494 41 36 11 89 21 117 21 27 0 74 10 104 23 29 12 66 22 81 22
15 0 46 8 69 18 23 9 70 25 103 36 99 30 182 63 317 126 70 33 130 60 133 60
36 0 398 236 538 351 121 99 163 107 197 35 12 -27 31 -62 41 -78 11 -17 36
-58 56 -91 21 -33 46 -74 57 -90 10 -16 29 -50 41 -74 13 -25 43 -79 68 -120
25 -42 54 -94 63 -117 10 -22 22 -41 27 -41 6 0 19 -21 29 -46 24 -58 5 -97
-71 -149 -31 -21 -66 -47 -79 -58 -43 -38 -232 -167 -244 -167 -7 0 -42 -20
-77 -44 -36 -25 -115 -69 -176 -98 -61 -30 -121 -60 -133 -66 -24 -14 -126
-60 -210 -97 -140 -61 -163 -70 -182 -70 -11 -1 -34 -11 -50 -23 -16 -12 -44
-22 -62 -22 -18 0 -52 -10 -76 -22 -23 -13 -54 -23 -68 -23 -15 0 -52 -9 -83
-21 -135 -49 -474 -108 -739 -129 -111 -9 -229 -18 -262 -21 -165 -14 -700 44
-915 98 -33 8 -95 21 -137 27 -43 7 -91 20 -108 29 -17 10 -43 17 -58 17 -15
0 -47 10 -70 23 -24 12 -58 22 -75 22 -18 1 -46 11 -62 23 -16 12 -38 22 -50
22 -21 0 -70 19 -192 76 -34 16 -69 29 -79 29 -9 0 -17 7 -17 15 0 8 -9 15
-21 15 -95 0 -844 470 -874 549 -9 23 -4 36 39 104 16 24 42 68 57 97 104 193
145 265 161 285 10 12 23 33 28 45 6 12 24 43 40 68 16 24 38 61 48 82 55 116
78 121 179 41z"/>
<path d="M3445 6888 c-32 -59 -23 -78 36 -78 47 0 61 34 23 56 -11 6 -23 25
-27 42 -5 25 -10 23 -32 -20z"/>
<path d="M3173 6731 c-6 -15 -7 -32 -2 -37 15 -15 27 7 20 36 -6 26 -7 26 -18
1z"/>
<path d="M5627 6877 c-26 -57 -21 -67 28 -67 49 0 64 50 27 87 -26 26 -35 23
-55 -20z"/>
<path d="M5955 6705 c0 -28 4 -32 18 -18 14 14 14 22 0 36 -14 14 -18 10 -18
-18z"/>
<path d="M2591 6066 c-11 -11 4 -159 17 -174 6 -6 33 7 62 30 l52 40 -45 8
c-33 6 -46 17 -50 45 -5 42 -22 65 -36 51z"/>
<path d="M4493 6450 c-14 -41 4 -90 32 -90 17 0 21 9 15 32 -5 18 -2 45 6 60
12 23 10 28 -14 28 -17 0 -34 -13 -39 -30z"/>
<path d="M4790 6470 c6 -5 15 -5 20 0 6 6 1 10 -10 10 -11 0 -15 -4 -10 -10z"/>
<path d="M3763 5765 c-14 -17 -15 -67 -3 -216 9 -106 17 -377 19 -602 4 -486
-5 -462 160 -462 160 0 153 -26 158 533 3 255 10 521 16 590 16 179 16 179
-175 179 -119 0 -162 -6 -175 -22z"/>
<path d="M4389 5766 c-5 -13 -6 -68 -2 -123 4 -55 11 -325 15 -600 10 -591 0
-558 158 -558 62 0 120 5 129 11 17 12 28 205 44 754 4 153 11 327 16 387 12
151 9 153 -189 153 -134 0 -163 -4 -171 -24z"/>
<path d="M5016 5772 c-9 -13 -5 -151 17 -709 2 -50 5 -190 5 -311 2 -268 1
-267 161 -267 l113 0 19 49 c18 46 31 478 31 1046 l1 203 -169 2 c-104 2 -172
-3 -178 -13z"/>
<path d="M2330 5120 c6 -5 15 -5 20 0 6 6 1 10 -10 10 -11 0 -15 -4 -10 -10z"/>
<path d="M5016 3775 c-16 -44 0 -92 32 -92 40 0 44 101 3 109 -14 3 -30 -5
-35 -17z"/>
<path d="M2404 3176 c-16 -27 -41 -75 -57 -108 -16 -33 -38 -69 -48 -80 -11
-11 -19 -30 -19 -42 0 -11 -6 -21 -14 -21 -7 0 -21 -19 -30 -41 -19 -49 -107
-203 -121 -214 -29 -22 -26 -59 6 -80 19 -13 44 -32 56 -43 54 -52 361 -248
463 -297 37 -18 78 -38 90 -45 52 -31 179 -90 194 -90 9 0 16 -6 16 -13 0 -8
19 -18 41 -23 23 -6 62 -19 87 -31 101 -47 155 -68 175 -68 11 0 34 -9 50 -21
16 -11 53 -24 82 -29 79 -13 235 -50 252 -61 8 -5 64 -16 124 -24 60 -9 116
-22 125 -29 42 -34 887 -58 1115 -31 85 10 173 20 195 23 101 11 256 43 308
61 31 12 74 21 95 21 21 0 53 8 71 18 18 9 56 22 85 28 29 6 90 26 135 44 45
18 103 38 128 44 24 6 58 18 75 27 16 9 109 54 206 101 97 46 221 111 274 143
54 33 103 60 110 60 7 0 42 22 79 50 36 27 76 54 88 59 12 5 61 40 108 77 98
78 98 86 11 215 -24 36 -44 68 -44 72 0 4 -20 39 -43 78 -24 39 -71 122 -104
184 -82 150 -89 154 -174 79 -66 -57 -291 -213 -339 -234 -12 -6 -43 -23 -67
-39 -25 -16 -96 -53 -158 -83 -62 -30 -137 -68 -168 -84 -30 -16 -66 -29 -79
-29 -13 0 -35 -7 -49 -15 -36 -20 -149 -60 -214 -74 -29 -7 -72 -20 -95 -29
-23 -9 -63 -17 -90 -18 -26 0 -64 -10 -85 -21 -21 -12 -69 -22 -107 -22 -38
-1 -98 -11 -133 -23 -50 -18 -143 -23 -434 -23 -280 0 -391 5 -456 23 -48 12
-115 22 -149 23 -35 0 -80 10 -101 22 -21 11 -60 21 -87 21 -27 1 -73 11 -103
24 -29 12 -65 22 -78 22 -14 0 -44 10 -67 23 -24 12 -55 22 -69 22 -14 0 -38
10 -54 22 -16 12 -41 22 -54 23 -36 0 -258 101 -380 173 -58 33 -116 66 -128
72 -60 30 -242 158 -332 234 -68 58 -79 57 -114 -3z m4213 -419 c44 -60 83
-113 88 -117 39 -38 50 -94 22 -114 -45 -34 -69 -20 -146 84 -40 54 -85 112
-100 130 -41 50 -50 104 -22 131 34 35 65 12 158 -114z m-3905 77 c38 -35 38
-30 17 -84 -70 -180 -58 -220 40 -131 98 89 120 100 156 81 46 -24 33 -75 -30
-116 -29 -19 -69 -51 -90 -69 -65 -60 -169 -130 -192 -130 -67 0 -98 91 -55
165 11 21 21 61 22 90 0 45 11 86 53 206 9 28 42 23 79 -12z m3673 -140 c-10
-100 7 -126 95 -149 102 -26 144 -108 74 -146 -27 -14 -137 29 -157 63 -5 7
-22 13 -38 13 -36 0 -40 -68 -7 -115 31 -43 14 -80 -35 -80 -39 0 -66 37 -190
254 -9 16 -25 39 -36 52 -16 19 -16 28 -1 47 30 36 77 26 121 -27 l41 -48 11
85 c21 174 138 222 122 51z m-3252 -97 c33 -25 35 -35 26 -109 -6 -44 -14
-124 -18 -178 -11 -148 -17 -165 -56 -165 -43 0 -70 27 -70 69 0 73 -97 117
-168 76 -52 -29 -87 -18 -87 28 0 48 272 300 330 306 4 0 24 -12 43 -27z
m2890 -41 c74 -49 38 -102 -58 -86 -43 7 -55 3 -69 -23 -17 -31 -14 -32 90
-32 176 0 244 -102 145 -217 -87 -100 -281 -92 -281 12 l0 44 83 -10 c99 -11
155 9 125 46 -15 18 -36 21 -94 13 -79 -10 -174 24 -174 62 0 10 -10 24 -22
31 -18 10 -16 21 12 72 54 96 168 137 243 88z m-2553 -80 c80 -37 118 -82 112
-133 -6 -56 -46 -58 -101 -4 -41 40 -106 63 -106 37 0 -4 40 -46 89 -93 99
-95 106 -132 38 -205 -89 -96 -307 -12 -307 117 0 75 37 73 111 -5 60 -64 94
-75 109 -36 7 17 -16 47 -75 99 -105 92 -112 135 -32 205 62 55 78 57 162 18z
m2242 -19 c23 -23 25 -362 2 -404 -41 -76 -112 -61 -175 36 -22 35 -70 102
-106 150 -74 99 -80 151 -17 158 34 4 50 -11 111 -102 85 -125 84 -125 90 24
6 135 44 189 95 138z m-1853 -81 c48 -24 116 -90 116 -112 0 -66 -67 -78 -120
-21 -19 20 -48 37 -63 37 -51 0 -27 -44 43 -80 188 -97 75 -332 -122 -257
-116 44 -174 174 -83 183 28 3 45 -8 68 -45 39 -64 112 -77 112 -21 0 20 -8
41 -19 46 -126 62 -174 139 -133 211 46 80 118 101 201 59z m1465 -13 c36 -43
12 -72 -79 -97 -107 -30 -110 -53 -6 -53 43 0 87 -6 97 -13 48 -31 -3 -100
-73 -100 -57 0 -103 -24 -103 -54 0 -18 21 -22 120 -19 228 7 177 -98 -58
-117 -137 -12 -141 -5 -186 270 -24 146 -10 156 261 203 5 1 17 -8 27 -20z
m-1184 -60 c14 -17 14 -34 2 -69 -9 -26 -20 -92 -25 -147 -15 -164 -48 -216
-114 -181 -22 12 -28 26 -22 51 5 18 15 83 24 143 31 218 72 279 135 203z
m167 -27 c2 -18 1 -93 -1 -165 l-4 -131 53 0 c103 0 186 -70 128 -107 -32 -20
-259 -16 -280 5 -22 22 -25 337 -3 394 20 52 104 56 107 4z m480 9 c12 -15 23
-78 28 -161 l8 -136 90 -8 c87 -7 90 -9 94 -54 6 -57 -16 -65 -173 -66 -131 0
-139 10 -139 167 0 59 -8 130 -18 157 -31 87 55 167 110 101z"/>
<path d="M3011 2444 c-35 -21 -33 -59 4 -59 22 0 30 10 30 38 0 42 1 41 -34
21z"/>
</g>
</svg>
