<?xml version="1.0" standalone="no"?>
<!DOCTYPE svg PUBLIC "-//W3C//DTD SVG 20010904//EN"
 "http://www.w3.org/TR/2001/REC-SVG-20010904/DTD/svg10.dtd">
<svg version="1.0" xmlns="http://www.w3.org/2000/svg"
 width="2400.000000pt" height="2400.000000pt" viewBox="0 0 2400.000000 2400.000000"
 preserveAspectRatio="xMidYMid meet">
<g transform="translate(0.000000,2400.000000) scale(0.100000,-0.100000)"
fill="#ffffff" stroke="none">
<path d="M0 12000 l0 -12000 12000 0 12000 0 0 12000 0 12000 -12000 0 -12000
0 0 -12000z m12410 8469 c52 -6 124 -10 160 -9 36 1 94 -3 130 -9 58 -10 66
-9 85 9 27 26 50 25 76 -1 37 -37 142 -44 165 -11 19 27 44 28 75 4 35 -27 56
-33 85 -22 16 7 32 7 43 0 14 -7 23 -4 37 11 23 25 149 25 149 -1 0 -9 -11
-16 -30 -18 -16 -2 -38 -12 -48 -23 -10 -10 -22 -19 -28 -19 -6 0 -9 -6 -7
-12 6 -16 66 -26 223 -38 66 -5 141 -11 166 -15 37 -4 49 -2 64 14 17 20 18
20 35 -2 16 -19 28 -22 98 -23 l79 -1 38 -41 c32 -37 43 -42 79 -42 23 0 46
-4 52 -10 9 -9 105 -28 164 -33 34 -3 50 -15 44 -32 -10 -26 24 -29 44 -5 26
32 207 16 230 -19 10 -15 25 -21 49 -21 26 0 36 -5 40 -20 5 -20 15 -24 42
-20 7 1 24 -8 37 -21 18 -17 30 -20 58 -15 30 6 39 3 58 -19 12 -15 32 -25 47
-25 16 0 31 -9 39 -21 11 -17 20 -20 48 -16 48 8 64 0 64 -33 0 -37 18 -49 80
-57 32 -4 67 -16 93 -34 51 -34 55 -35 84 -8 l22 22 10 -27 c8 -19 17 -26 38
-26 17 0 33 -8 41 -20 7 -12 23 -20 38 -20 14 0 32 -7 40 -15 8 -8 31 -17 52
-20 20 -3 45 -10 54 -15 9 -5 36 -13 60 -16 50 -8 68 -19 68 -45 0 -42 110
-64 128 -25 8 18 20 26 36 26 33 0 44 -31 17 -49 -43 -28 -12 -79 31 -52 16
10 23 9 37 -3 10 -9 23 -16 29 -16 25 0 11 -32 -18 -43 -35 -13 -34 -31 1 -35
13 -1 41 -7 62 -13 42 -11 77 -4 77 16 0 32 63 33 95 0 30 -29 31 -42 5 -50
-11 -3 -20 -12 -20 -20 0 -15 35 -30 49 -20 5 3 29 -15 53 -40 26 -27 52 -45
65 -45 22 0 73 -36 73 -51 0 -5 -16 -11 -35 -15 -41 -7 -46 -30 -9 -44 39 -15
54 -12 64 14 15 41 70 46 70 7 0 -10 9 -21 20 -24 10 -3 27 -23 37 -46 16 -36
22 -41 51 -41 25 0 40 -8 58 -30 14 -16 42 -34 62 -40 58 -16 95 -79 70 -119
-15 -25 6 -53 36 -49 16 2 22 11 24 41 4 47 34 49 42 2 3 -19 12 -31 25 -33
11 -2 30 -13 42 -24 27 -25 58 -17 50 12 -13 50 59 53 80 3 13 -32 12 -33 -21
-47 -59 -24 -69 -81 -17 -92 14 -3 45 -10 69 -15 24 -5 47 -7 51 -5 10 6 111
-88 111 -103 0 -6 -11 -13 -25 -17 -14 -3 -25 -12 -25 -20 0 -19 49 -18 56 1
11 29 73 19 79 -12 3 -16 10 -46 16 -68 6 -22 13 -52 16 -67 8 -43 31 -56 38
-21 11 48 14 53 32 53 16 0 63 -55 63 -74 0 -24 101 -106 124 -100 27 7 34 -1
56 -66 19 -57 54 -68 63 -21 8 36 27 42 27 8 0 -34 95 -133 123 -129 29 3 87
-52 87 -82 0 -13 9 -31 20 -41 26 -24 25 -49 -2 -75 -34 -31 -9 -49 30 -20 44
32 67 16 75 -52 5 -40 14 -60 37 -83 16 -16 37 -38 45 -47 18 -20 43 -14 66
15 18 22 39 15 39 -13 0 -10 23 -42 52 -70 39 -39 49 -53 40 -62 -27 -27 -5
-108 30 -108 17 0 158 -134 158 -150 0 -5 -4 -10 -10 -10 -30 0 17 -114 51
-125 11 -4 40 -4 63 -1 46 7 74 -10 63 -38 -10 -24 16 -86 45 -111 17 -14 28
-34 28 -48 0 -16 14 -37 40 -61 25 -23 40 -45 40 -60 0 -15 15 -37 40 -60 25
-23 40 -45 40 -60 0 -16 7 -26 21 -29 20 -6 22 -10 16 -68 -6 -51 -5 -60 8
-55 31 11 75 -14 75 -44 0 -19 11 -38 38 -62 37 -34 39 -39 45 -111 7 -101 17
-117 69 -117 61 0 97 -43 90 -105 -3 -28 -1 -45 6 -45 30 0 87 -73 89 -114 1
-22 6 -59 12 -81 5 -22 15 -62 21 -88 11 -45 14 -48 36 -43 31 8 44 -19 19
-38 -13 -9 -16 -19 -11 -32 7 -18 8 -18 26 4 20 24 35 28 45 12 15 -25 35
-126 40 -211 3 -52 8 -104 11 -116 6 -32 34 -30 34 2 0 18 5 25 19 25 23 0 31
-18 20 -47 -5 -15 -3 -25 7 -33 7 -7 14 -24 14 -39 1 -27 32 -126 44 -138 3
-3 6 -16 6 -28 0 -13 18 -38 46 -64 27 -24 44 -47 41 -56 -8 -19 11 -85 24
-85 6 0 9 -19 8 -43 -2 -34 3 -51 20 -73 22 -27 23 -36 18 -117 -6 -93 10
-157 40 -157 15 0 17 11 13 106 -2 72 9 99 32 76 15 -15 13 -176 -2 -212 -9
-22 -9 -34 -2 -43 6 -7 12 -33 13 -58 5 -140 28 -215 80 -264 34 -31 39 -41
34 -65 -8 -35 7 -94 29 -116 9 -8 14 -19 11 -24 -6 -10 11 -96 30 -155 7 -22
10 -55 8 -74 -3 -18 0 -73 7 -122 12 -84 14 -88 43 -98 l29 -11 -17 -27 c-10
-16 -24 -32 -32 -36 -19 -12 -16 -38 9 -64 24 -26 38 -29 38 -9 0 25 29 41 37
20 4 -12 0 -22 -14 -31 -18 -12 -20 -19 -12 -46 13 -43 2 -88 -27 -112 -22
-18 -23 -23 -14 -57 18 -62 56 -42 43 22 -5 26 -3 30 16 30 21 0 22 -3 15 -47
-3 -27 -10 -52 -15 -58 -13 -13 -11 -202 1 -210 7 -4 8 -30 4 -69 -4 -41 -2
-77 6 -101 16 -49 16 -903 0 -919 -13 -13 -13 -81 -1 -105 16 -30 25 -242 11
-276 -6 -16 -13 -57 -15 -90 -2 -33 -9 -73 -15 -90 -14 -37 -4 -145 15 -172
23 -30 19 -97 -8 -130 -28 -33 -27 -99 1 -121 26 -20 19 -142 -8 -161 -18 -12
-20 -25 -20 -127 0 -90 -3 -114 -14 -114 -18 0 -27 64 -21 147 4 38 2 74 -3
82 -17 24 -32 1 -32 -50 0 -28 -5 -60 -12 -72 -7 -14 -12 -86 -12 -204 -1
-127 -5 -186 -13 -194 -8 -8 -10 -28 -6 -54 7 -54 -17 -68 -53 -30 -28 30 -40
31 -54 6 -7 -15 -6 -23 5 -35 31 -31 -16 -88 -54 -64 -27 16 -91 -44 -91 -86
0 -30 -23 -76 -49 -96 -27 -21 -31 -53 -7 -58 10 -2 23 3 28 12 6 11 23 16 53
16 74 0 72 -42 -2 -45 -47 -1 -51 -18 -52 -205 0 -105 -3 -127 -17 -137 -13
-10 -14 -15 -5 -26 15 -19 10 -138 -6 -155 -7 -7 -13 -30 -13 -51 0 -31 -8
-46 -40 -79 -22 -22 -40 -49 -40 -60 0 -10 -17 -37 -37 -59 -21 -22 -49 -52
-62 -67 -13 -15 -42 -36 -63 -47 -67 -34 -89 -95 -92 -250 -1 -106 -5 -131
-20 -147 -14 -16 -16 -31 -12 -77 5 -55 4 -57 -34 -95 -40 -39 -57 -78 -46
-105 3 -9 -6 -26 -25 -43 -17 -15 -39 -43 -49 -63 -10 -19 -25 -41 -34 -48 -9
-7 -18 -29 -21 -50 -22 -141 -39 -172 -70 -125 -16 24 -16 24 -45 7 -17 -9
-30 -24 -30 -33 0 -29 -86 -110 -118 -110 -15 0 -37 -7 -48 -15 -10 -8 -34
-15 -52 -15 -51 0 -44 -53 8 -60 43 -6 48 -33 7 -38 -34 -4 -45 -26 -23 -47
14 -14 12 -19 -22 -54 -59 -61 -69 -86 -49 -121 12 -19 16 -45 14 -76 -3 -49
-7 -54 -62 -71 -28 -9 -32 -18 -24 -53 3 -11 -5 -15 -31 -15 -43 0 -57 -45
-21 -65 26 -13 27 -54 3 -72 -11 -7 -27 -30 -37 -51 -24 -51 -54 -67 -73 -39
-11 17 -18 19 -43 10 -32 -11 -38 -25 -14 -34 26 -10 16 -33 -24 -59 -22 -13
-43 -30 -48 -38 -4 -7 -21 -19 -38 -25 -30 -12 -30 -14 -33 -95 -3 -89 -13
-111 -39 -85 -36 37 -83 -11 -83 -84 0 -37 -6 -47 -65 -104 -35 -34 -74 -64
-87 -66 -14 -2 -24 -12 -28 -28 -7 -31 -35 -37 -61 -14 -16 14 -24 15 -44 6
-33 -15 -32 -25 6 -39 42 -16 38 -56 -6 -61 -37 -5 -209 -172 -219 -214 -5
-21 -13 -28 -29 -28 -29 0 -47 -18 -47 -46 0 -13 -4 -26 -10 -29 -5 -3 -10
-15 -10 -26 0 -27 -53 -79 -79 -79 -11 0 -24 -7 -29 -16 -5 -8 -33 -21 -63
-28 -50 -11 -54 -14 -51 -39 3 -33 -14 -67 -33 -67 -15 0 -16 4 -19 80 -1 38
-4 45 -21 45 -34 0 -54 -74 -32 -119 18 -38 15 -61 -9 -70 -21 -8 -64 11 -64
29 0 23 -16 18 -34 -10 -9 -14 -23 -25 -31 -25 -22 0 -74 -62 -85 -102 -9 -31
-17 -38 -52 -50 -46 -14 -75 -53 -82 -107 -5 -45 -10 -46 -50 -16 -54 41 -135
9 -107 -44 10 -18 8 -20 -26 -23 -33 -3 -38 -7 -43 -33 -11 -54 -53 -85 -115
-85 -53 0 -85 -16 -85 -44 0 -7 -16 -27 -35 -46 -19 -19 -35 -41 -35 -50 0
-43 -41 -51 -75 -14 -17 18 -32 25 -52 22 -32 -4 -39 -31 -8 -36 49 -9 16 -72
-38 -72 -14 0 -38 -16 -61 -41 -34 -38 -42 -41 -89 -42 -67 0 -74 -3 -85 -37
-12 -34 -8 -40 29 -40 31 0 42 -11 33 -34 -8 -22 -49 -20 -101 5 -34 16 -54
20 -88 14 -52 -7 -53 -10 -22 -36 22 -19 22 -19 3 -34 -11 -8 -29 -15 -41 -15
-12 0 -26 -5 -33 -12 -14 -14 -80 -38 -107 -38 -11 0 -38 -11 -60 -25 -22 -13
-50 -25 -61 -25 -25 0 -48 -24 -41 -42 9 -25 -13 -50 -39 -44 -16 4 -25 2 -25
-6 -1 -7 -3 -20 -4 -28 -1 -8 -3 -21 -4 -27 -2 -25 -77 -16 -89 11 -11 25 -94
45 -116 27 -6 -5 -30 -12 -53 -16 -93 -15 -65 -45 45 -48 46 -1 82 -6 82 -12
1 -18 -160 -32 -354 -31 l-189 1 -12 35 c-15 43 -37 49 -55 15 -11 -21 -12
-30 -2 -46 11 -17 -3 -34 -140 -169 l-153 -150 -57 0 c-38 0 -62 -5 -72 -15
-12 -12 -36 -15 -103 -14 -108 1 -141 -11 -145 -55 -3 -30 -4 -31 -48 -28 -39
2 -49 -2 -68 -23 -25 -29 -44 -32 -62 -10 -25 30 -93 19 -128 -21 -26 -29 -36
-34 -54 -28 -13 5 -49 7 -81 6 -35 -2 -64 2 -73 9 -11 9 -24 9 -53 0 -55 -16
-66 -32 -41 -64 40 -50 18 -68 -88 -69 -81 -1 -87 1 -132 46 -25 24 -67 14
-82 -19 -13 -28 -11 -28 -93 -30 -33 -1 -96 -5 -141 -9 -61 -6 -89 -4 -115 6
-28 12 -39 12 -64 2 -16 -7 -49 -13 -72 -14 -23 0 -44 -4 -47 -8 -3 -5 -79
-10 -168 -10 -90 -1 -314 -4 -498 -8 -211 -3 -420 -1 -565 7 -126 6 -296 14
-376 18 -123 5 -150 9 -167 24 -23 21 -84 17 -157 -9 -37 -13 -45 -12 -95 6
-79 29 -236 39 -253 16 -10 -13 -24 -17 -57 -14 -43 3 -45 5 -48 35 -3 32 -3
33 38 33 34 0 41 3 38 18 -3 15 -17 17 -118 17 -69 0 -130 6 -153 14 -22 7
-52 11 -67 7 -18 -3 -46 2 -75 15 -26 11 -54 18 -62 15 -10 -4 -26 3 -40 16
-20 18 -36 23 -86 23 -56 0 -65 3 -92 31 -42 43 -66 54 -124 54 -27 0 -53 5
-56 10 -10 15 -46 12 -59 -6 -11 -14 -13 -14 -26 1 -12 14 -10 17 8 22 26 6
29 21 6 30 -8 3 -28 -4 -44 -16 -36 -26 -66 -27 -105 -1 -16 11 -50 22 -75 26
-87 11 -102 27 -58 58 l22 16 -39 40 c-22 22 -53 44 -71 49 -17 5 -52 31 -79
60 -31 33 -56 51 -71 51 -14 0 -30 10 -40 25 -9 14 -24 25 -34 25 -10 0 -20 9
-23 21 -4 13 -12 20 -24 17 -26 -5 -22 -32 5 -36 32 -5 29 -40 -4 -48 -49 -12
-236 4 -256 23 -17 15 -19 15 -36 0 -27 -25 -123 -23 -153 3 -19 15 -20 19 -8
20 19 0 49 30 30 30 -7 0 -23 11 -35 25 -16 17 -48 32 -92 43 -56 15 -71 23
-82 45 -7 15 -20 27 -28 27 -8 0 -22 4 -32 9 -22 12 -119 42 -129 39 -4 0 -20
2 -35 5 -16 4 -39 9 -53 12 -26 6 -55 50 -55 84 0 11 -5 23 -12 27 -12 8 -132
16 -218 16 -46 0 -60 9 -60 42 0 24 -95 116 -120 116 -10 0 -38 20 -61 45 -30
31 -48 44 -60 40 -13 -4 -22 2 -33 23 -10 19 -28 33 -58 42 -29 9 -65 35 -113
82 -39 37 -79 68 -90 68 -11 0 -27 5 -35 10 -10 6 -20 4 -32 -6 -21 -20 -38
-10 -38 22 0 13 -11 34 -25 46 -14 12 -25 28 -25 37 0 8 -12 32 -26 53 -35 50
-79 54 -95 8 -9 -24 -17 -30 -39 -30 -39 0 -46 16 -15 36 58 38 26 90 -64 103
-42 6 -46 9 -51 37 -7 40 -41 82 -78 95 -17 6 -33 20 -36 32 l-7 22 -16 -23
c-41 -59 -88 -14 -88 86 0 62 -3 77 -15 77 -11 0 -16 -13 -18 -47 -4 -68 -16
-63 -136 59 -64 64 -118 111 -138 117 -24 8 -34 19 -40 44 -6 21 -15 32 -26
32 -22 0 -42 19 -42 40 0 25 -175 189 -218 204 -47 16 -52 38 -12 53 40 15 41
50 3 59 -16 4 -36 13 -45 21 -9 9 -25 12 -36 9 -16 -5 -39 12 -106 81 -95 96
-108 130 -61 151 47 22 31 42 -34 42 -54 0 -59 -2 -65 -24 -8 -32 -33 -40 -47
-15 -12 23 3 49 27 49 25 0 17 58 -10 76 -14 8 -27 28 -31 43 -6 29 -54 80
-92 100 -18 9 -23 20 -23 48 0 31 -8 44 -47 81 -27 24 -55 58 -63 75 -12 26
-21 32 -48 32 -37 1 -52 17 -52 58 0 15 -4 27 -9 27 -16 0 -51 64 -41 74 13
13 13 53 0 61 -6 3 -10 16 -10 29 0 12 -11 32 -24 43 -25 22 -27 82 -5 143 40
111 33 140 -34 140 -51 0 -157 76 -157 112 0 6 -9 8 -21 5 -22 -6 -89 54 -89
79 0 6 -9 19 -20 29 -11 10 -20 25 -20 33 0 22 -63 80 -96 88 -42 10 -54 23
-54 55 0 28 -30 69 -49 69 -18 0 -53 70 -47 93 3 13 0 41 -6 63 -6 21 -10 48
-9 59 2 27 -24 102 -44 121 -22 22 -14 91 12 109 21 14 31 127 14 153 -8 13
-67 42 -84 42 -30 0 -40 28 -18 47 40 34 12 62 -64 63 -55 0 -75 12 -75 45 0
32 -49 128 -79 156 -20 18 -30 39 -35 72 -5 30 -14 50 -25 57 -13 7 -20 25
-23 63 -3 35 -12 64 -26 82 -19 24 -20 30 -8 54 10 20 11 41 4 91 -5 36 -6 88
-3 117 5 45 3 55 -14 70 -26 22 -26 35 -1 58 11 10 20 26 20 36 0 11 9 24 20
31 20 13 28 38 12 38 -5 0 -36 27 -70 60 -33 33 -65 60 -69 60 -12 0 -63 77
-63 95 0 7 -8 23 -18 36 -11 13 -22 36 -26 52 -3 15 -11 27 -16 27 -6 0 -10
13 -10 29 0 17 -5 33 -10 36 -20 12 -41 67 -45 116 -3 27 -9 57 -14 67 -5 9
-7 38 -4 64 3 29 0 60 -8 80 -7 18 -12 45 -10 60 5 56 -6 70 -57 66 -53 -3
-59 6 -28 47 12 16 29 25 47 25 53 0 52 61 -2 116 l-43 44 2 129 c1 82 -3 147
-12 181 -10 39 -11 61 -3 86 8 28 7 42 -6 70 -16 33 -17 82 -11 607 4 315 7
581 7 592 -1 11 -3 91 -7 177 -3 86 -2 167 3 180 6 15 4 32 -5 50 -13 25 -12
30 7 49 18 18 21 33 21 108 0 47 4 94 9 103 6 10 5 19 -1 23 -16 10 -12 30 15
69 23 33 25 66 4 66 -18 0 -8 28 21 56 33 32 37 49 15 58 -21 8 -19 33 4 45
14 8 20 27 26 88 13 149 16 168 26 238 5 39 11 85 13 104 2 18 9 36 15 40 15
10 32 71 26 92 -4 11 3 23 16 33 36 25 68 140 72 256 1 25 8 55 15 67 7 13 10
33 6 46 -4 18 2 32 20 52 14 15 26 31 26 36 0 4 5 20 11 36 l11 28 19 -24 c11
-13 21 -22 22 -20 22 32 26 65 15 130 -10 61 -9 75 5 105 10 19 17 45 17 58 0
13 7 29 15 36 8 7 15 25 15 40 0 21 8 34 34 50 43 26 46 36 41 128 -3 67 -2
74 21 95 16 15 23 32 22 47 -3 22 1 25 26 25 24 0 31 5 38 30 10 36 4 55 -17
55 -29 0 -17 38 16 49 26 9 30 15 25 34 -4 17 0 30 14 42 11 10 20 28 20 40 0
11 5 26 10 31 25 25 29 72 7 87 -13 9 -18 19 -14 30 9 24 22 21 35 -7 13 -29
43 -26 80 7 30 28 28 46 -8 58 -36 13 -38 23 -9 43 13 9 19 21 16 30 -4 10 4
25 20 40 16 15 24 30 20 40 -4 10 1 23 13 33 11 10 20 28 20 41 0 13 12 36 28
51 62 62 102 114 117 155 10 26 26 48 41 55 46 21 110 151 74 151 -20 0 -9 24
25 56 23 20 35 41 35 57 0 14 6 30 14 34 8 4 16 23 18 42 4 43 32 63 51 37 20
-27 62 -18 62 14 0 20 -6 26 -30 28 -40 5 -49 15 -35 41 9 18 17 21 45 15 48
-9 81 34 112 141 3 11 17 32 31 47 14 15 22 33 19 42 -9 22 61 86 94 86 29 0
43 36 33 77 -7 24 8 35 49 39 53 4 87 73 65 135 -12 35 3 59 35 59 12 0 38 18
58 40 31 33 43 39 62 35 33 -9 43 19 15 44 -41 39 10 112 63 93 30 -11 88 4
96 24 3 8 -4 25 -16 38 -29 31 -27 54 7 62 48 10 70 22 77 43 3 11 15 23 25
26 10 3 22 14 25 24 11 35 53 71 83 71 61 0 106 62 55 75 -32 8 -43 21 -43 52
0 40 41 57 136 54 88 -2 91 0 85 46 -4 34 36 78 69 75 34 -3 100 46 100 74 0
20 -32 25 -57 9 -31 -20 -77 -16 -81 8 -3 12 5 19 27 23 17 4 33 14 36 25 8
24 37 32 84 24 87 -15 202 110 150 162 -29 29 25 44 64 18 32 -21 49 -5 54 51
5 66 63 119 63 58 0 -31 38 -11 85 46 32 38 62 63 83 69 43 12 96 56 153 124
17 20 40 37 51 37 11 0 36 16 56 36 22 22 47 37 66 39 58 6 88 23 81 46 -8 25
47 79 73 72 10 -2 28 7 41 21 14 14 32 26 41 26 32 0 60 30 60 65 0 49 42 60
74 20 21 -27 23 -27 52 -12 51 27 80 65 66 87 -19 31 -14 40 19 40 23 0 41 10
66 36 31 33 63 41 63 14 0 -40 105 17 135 74 11 20 27 39 36 41 10 3 20 12 22
20 3 7 28 24 56 36 33 16 52 31 56 46 9 36 75 28 75 -8 0 -15 -7 -19 -35 -19
-30 0 -35 -3 -35 -24 0 -32 23 -39 52 -17 13 11 40 26 61 34 44 19 49 44 10
49 -45 5 -43 38 2 38 22 0 38 6 41 15 4 8 18 15 33 15 17 0 36 10 49 25 25 29
44 32 62 10 27 -33 80 0 94 59 6 24 11 27 34 23 32 -6 92 23 120 58 18 23 24
24 80 19 59 -7 62 -6 73 20 7 14 18 26 25 26 7 0 21 12 32 27 19 26 22 26 58
15 40 -12 55 -5 67 32 2 7 25 10 60 8 47 -3 59 0 79 20 45 46 89 68 156 78 37
6 84 20 104 31 20 11 53 21 72 22 19 2 50 15 69 30 20 15 44 27 54 27 10 0 26
9 36 20 20 24 50 26 71 5 18 -19 60 -19 75 -1 17 20 99 49 122 43 59 -16 194
29 228 76 7 10 19 16 27 13 14 -5 89 13 149 37 18 7 90 12 179 12 110 0 150 3
153 13 3 6 20 12 39 12 32 0 34 2 34 35 0 31 3 35 26 35 23 0 25 -3 23 -37 -3
-33 -1 -38 16 -35 11 2 36 6 55 9 20 3 44 16 55 29 11 13 31 38 45 54 27 33
54 39 68 14 16 -28 175 -25 230 4 51 26 78 28 90 6 8 -15 20 -16 113 -5 57 6
173 13 258 16 85 3 156 6 158 8 9 9 607 6 693 -4z m-4623 -986 c2 -6 -5 -14
-16 -18 -24 -7 -64 12 -55 26 8 13 66 7 71 -8z m-324 -319 c-7 -18 -63 -19
-63 -1 0 19 42 37 57 25 6 -5 9 -16 6 -24z m10432 -644 c0 -19 -41 -25 -60
-10 -22 18 -8 32 28 28 20 -2 32 -8 32 -18z m2208 -9047 c6 -32 -1 -81 -14
-88 -23 -15 -31 45 -13 103 6 21 21 13 27 -15z m-15563 -1666 c0 -13 -40 -57
-52 -57 -13 0 -9 29 8 55 15 23 44 25 44 2z m118 -121 c4 -18 -32 -22 -57 -7
-12 8 -12 12 -2 25 15 18 54 7 59 -18z"/>
<path d="M11635 20184 c-148 -6 -569 -44 -655 -59 -47 -8 -112 -17 -145 -20
-33 -4 -96 -13 -140 -20 -44 -8 -132 -23 -195 -35 -63 -11 -140 -26 -170 -34
-59 -16 -81 -20 -290 -66 -167 -36 -311 -75 -350 -95 -16 -8 -38 -15 -50 -15
-12 0 -33 -6 -48 -14 -15 -7 -49 -16 -77 -20 -27 -3 -67 -15 -88 -26 -21 -12
-64 -27 -95 -35 -32 -7 -82 -23 -112 -35 -30 -12 -84 -33 -120 -47 -36 -13
-83 -30 -106 -37 -23 -6 -48 -17 -56 -23 -22 -19 -101 -53 -122 -53 -17 0
-137 -48 -176 -71 -104 -60 -160 -89 -170 -89 -17 0 -201 -93 -248 -125 -20
-14 -42 -25 -48 -25 -6 0 -35 -13 -65 -29 -30 -15 -66 -31 -82 -35 -15 -3 -35
-14 -45 -22 -9 -9 -64 -45 -122 -80 -58 -35 -123 -76 -145 -92 -22 -17 -63
-41 -91 -55 -27 -14 -56 -33 -64 -42 -8 -9 -40 -30 -71 -46 -32 -16 -60 -33
-64 -39 -3 -6 -32 -27 -63 -46 -31 -20 -73 -51 -94 -68 -57 -49 -121 -93 -145
-100 -13 -4 -23 -11 -23 -16 0 -5 -13 -16 -30 -25 -16 -8 -40 -25 -52 -36 -13
-12 -52 -43 -88 -70 -109 -83 -197 -154 -228 -185 -63 -62 -190 -175 -228
-202 -58 -42 -552 -539 -569 -573 -9 -16 -29 -36 -45 -44 -17 -9 -30 -20 -30
-25 0 -10 -50 -71 -144 -175 -30 -33 -86 -100 -125 -150 -39 -49 -82 -103 -97
-120 -14 -16 -32 -44 -39 -62 -8 -18 -19 -33 -24 -33 -6 0 -17 -12 -25 -27 -8
-16 -27 -42 -42 -59 -16 -17 -44 -57 -63 -89 -19 -31 -45 -64 -58 -72 -13 -8
-23 -22 -23 -30 0 -8 -11 -29 -24 -46 -13 -18 -33 -50 -44 -72 -11 -22 -31
-51 -45 -63 -14 -13 -31 -38 -38 -55 -7 -18 -24 -45 -37 -62 -14 -16 -36 -54
-49 -84 -14 -30 -36 -69 -50 -85 -14 -17 -34 -51 -45 -76 -11 -25 -30 -56 -42
-70 -13 -14 -27 -38 -30 -55 -4 -16 -32 -69 -61 -117 -29 -48 -57 -97 -60
-109 -4 -11 -24 -49 -45 -83 -22 -33 -43 -79 -48 -101 -5 -22 -27 -72 -49
-112 -23 -39 -44 -85 -48 -101 -3 -17 -13 -36 -20 -42 -8 -6 -21 -37 -30 -68
-9 -31 -30 -82 -46 -114 -16 -31 -29 -64 -29 -71 0 -8 -14 -41 -31 -73 -35
-66 -81 -207 -139 -422 -15 -57 -35 -111 -44 -121 -9 -10 -16 -22 -16 -28 0
-6 -18 -73 -41 -149 -23 -77 -47 -168 -54 -204 -7 -36 -20 -83 -29 -105 -8
-22 -15 -53 -16 -69 0 -16 -6 -55 -14 -85 -26 -99 -55 -234 -66 -306 -6 -38
-15 -88 -20 -110 -5 -22 -14 -87 -20 -145 -7 -58 -20 -155 -31 -216 -10 -62
-23 -179 -29 -260 -5 -82 -14 -221 -20 -309 -24 -377 2 -1118 49 -1395 11 -63
31 -209 46 -325 14 -115 35 -244 46 -285 12 -41 24 -95 29 -120 5 -25 18 -90
30 -145 12 -55 26 -120 31 -145 15 -75 9 -73 286 -81 496 -15 631 -12 644 13
19 35 4 231 -21 283 -27 57 -45 120 -70 255 -11 63 -29 147 -40 185 -10 39
-21 108 -25 155 -3 47 -12 114 -20 150 -8 36 -21 142 -30 235 -9 94 -20 213
-25 265 -14 143 -30 496 -30 660 1 224 50 807 80 945 6 28 15 86 19 130 5 44
16 107 24 140 9 33 19 83 22 110 4 28 15 77 25 110 10 33 28 110 40 170 12 61
27 130 35 155 75 246 100 324 121 378 13 34 24 73 24 86 0 13 9 35 20 49 11
14 20 34 20 45 0 11 14 53 31 93 17 41 37 95 45 122 7 26 20 57 28 69 9 12 16
33 16 45 0 13 34 90 75 172 41 82 75 153 75 157 0 8 45 106 93 199 16 33 39
77 49 98 11 21 46 83 79 138 32 55 59 102 59 106 0 3 17 31 37 62 21 31 47 73
58 93 27 48 134 211 180 271 20 27 45 68 55 91 10 24 27 50 38 58 11 7 30 30
42 51 12 20 26 37 30 37 4 0 17 15 29 33 11 17 35 50 53 73 18 22 61 76 96
120 34 43 76 94 92 111 17 18 30 36 30 41 0 5 30 40 68 78 37 38 79 85 93 104
30 39 343 355 438 440 34 30 94 86 134 123 39 38 89 79 109 93 21 13 60 46 87
72 28 26 68 61 91 77 22 17 60 46 84 65 84 67 121 95 166 124 25 16 72 50 105
75 129 101 576 373 793 482 62 31 123 65 135 76 26 23 167 88 241 111 28 8 62
26 76 38 28 26 71 44 103 44 12 0 46 16 76 35 30 19 71 38 90 41 41 7 115 32
181 63 25 11 57 21 72 21 15 0 33 9 41 20 8 12 33 24 63 29 27 6 82 21 123 35
41 15 83 26 93 26 11 0 36 9 56 19 46 24 579 161 627 161 11 0 74 13 140 29
67 16 165 32 221 35 56 3 121 13 145 22 24 8 96 19 159 24 63 5 156 15 205 21
125 17 1050 18 1159 1 43 -7 140 -17 215 -22 75 -5 159 -16 186 -24 28 -8 98
-17 157 -20 62 -4 129 -14 161 -25 31 -11 82 -23 114 -26 32 -4 109 -20 172
-36 63 -16 122 -29 132 -29 10 0 53 -11 96 -24 43 -14 112 -34 153 -46 41 -11
136 -41 211 -65 75 -25 148 -45 162 -45 14 0 38 -11 54 -24 15 -13 45 -26 66
-30 20 -4 70 -21 110 -38 39 -16 92 -36 117 -43 25 -7 85 -31 133 -54 49 -23
93 -41 99 -41 5 0 26 -13 46 -30 23 -18 58 -34 92 -40 30 -6 63 -19 74 -29 12
-10 32 -22 46 -26 14 -4 44 -17 67 -30 23 -13 58 -28 78 -35 19 -6 35 -16 35
-21 0 -5 24 -20 53 -34 64 -30 160 -86 184 -107 21 -18 145 -78 161 -78 6 0
26 -13 44 -28 35 -30 99 -74 153 -107 19 -11 71 -45 117 -76 46 -31 101 -66
123 -77 22 -11 58 -36 80 -56 21 -20 42 -36 46 -36 4 0 28 -17 52 -37 62 -52
133 -108 193 -152 28 -20 75 -60 105 -89 30 -29 67 -60 83 -69 16 -8 40 -29
54 -45 14 -16 48 -47 76 -68 55 -40 364 -346 457 -451 31 -35 91 -99 133 -142
42 -43 88 -96 102 -117 14 -21 44 -58 66 -82 22 -24 67 -79 101 -123 33 -44
66 -84 74 -88 7 -5 21 -25 29 -46 8 -21 26 -43 40 -49 13 -7 24 -19 24 -27 0
-8 18 -35 40 -59 22 -24 40 -49 40 -55 0 -20 32 -75 51 -88 9 -7 34 -43 55
-80 20 -38 52 -85 69 -105 17 -21 44 -61 60 -90 15 -29 40 -72 56 -95 15 -22
30 -52 34 -65 5 -12 19 -38 32 -55 14 -18 43 -68 65 -110 122 -237 188 -371
193 -395 4 -15 13 -32 21 -39 8 -6 14 -21 14 -32 0 -11 24 -67 54 -126 46 -89
109 -246 166 -411 7 -19 21 -53 31 -75 10 -22 23 -62 30 -90 7 -27 23 -75 36
-105 26 -58 44 -117 94 -315 17 -66 39 -147 50 -179 10 -33 19 -71 19 -85 0
-14 9 -57 19 -96 38 -136 59 -241 66 -325 3 -47 13 -112 20 -145 24 -98 49
-331 76 -698 11 -147 8 -572 -5 -797 -2 -25 -6 -106 -10 -180 -4 -74 -13 -175
-21 -225 -8 -49 -17 -119 -21 -155 -3 -36 -13 -99 -21 -140 -8 -41 -19 -118
-25 -170 -5 -52 -16 -111 -24 -130 -7 -19 -18 -72 -24 -118 -5 -46 -13 -88
-17 -95 -4 -6 -13 -39 -19 -72 -7 -33 -22 -91 -32 -130 -46 -167 -46 -166 -18
-194 30 -30 19 -29 503 -33 l362 -2 29 27 c44 42 98 261 136 547 2 19 11 80
20 135 25 163 45 313 56 425 6 58 13 123 16 145 3 22 10 110 14 195 5 85 14
245 20 355 7 110 10 252 7 315 -12 260 -29 530 -37 605 -5 44 -19 174 -30 290
-11 115 -27 234 -35 265 -7 30 -21 105 -30 165 -32 207 -69 387 -115 550 -10
39 -26 108 -35 154 -8 46 -27 114 -42 150 -15 36 -30 82 -34 101 -4 19 -12 49
-17 65 -5 17 -17 53 -27 80 -9 28 -24 85 -34 127 -10 42 -24 84 -31 94 -18 21
-36 69 -102 274 -11 36 -36 99 -55 140 -20 41 -48 102 -63 135 -15 33 -47 105
-70 160 -24 55 -65 142 -91 194 -27 52 -49 98 -49 103 0 13 -88 158 -110 183
-10 11 -22 34 -26 50 -4 17 -15 41 -26 54 -10 13 -18 29 -18 36 0 7 -15 32
-34 57 -19 24 -42 62 -51 84 -9 21 -24 48 -34 59 -10 11 -37 54 -60 95 -23 41
-60 100 -82 130 -22 30 -52 73 -66 95 -14 22 -39 55 -54 73 -16 18 -29 37 -29
42 0 12 -70 113 -86 122 -6 4 -17 21 -24 37 -6 17 -22 37 -35 45 -13 9 -27 26
-30 38 -4 13 -18 34 -32 48 -13 14 -55 66 -94 115 -38 50 -98 120 -132 157
-34 37 -67 80 -74 96 -6 16 -24 37 -38 46 -14 9 -31 27 -36 40 -6 12 -24 31
-41 40 -16 10 -36 34 -44 52 -8 19 -26 40 -40 46 -14 7 -33 26 -42 42 -9 17
-80 92 -157 166 -77 74 -155 152 -173 174 -18 21 -50 52 -72 67 -22 16 -40 34
-40 39 0 5 -18 19 -40 30 -22 11 -40 25 -40 31 0 17 -100 107 -143 130 -21 11
-40 26 -43 34 -3 8 -54 53 -112 100 -59 47 -122 99 -140 115 -17 16 -56 45
-86 64 -30 19 -57 39 -61 45 -3 6 -41 31 -83 56 -42 24 -83 53 -89 64 -7 11
-27 28 -45 37 -18 9 -35 20 -38 24 -3 4 -41 31 -85 60 -44 29 -93 62 -110 73
-16 12 -50 32 -75 45 -109 57 -124 68 -150 117 -16 30 -40 57 -61 69 -19 10
-50 29 -70 42 -19 13 -45 24 -56 24 -12 0 -25 5 -28 10 -4 6 -30 22 -58 36
-29 15 -83 45 -122 68 -109 64 -226 105 -302 106 -40 0 -108 25 -148 55 -16
12 -43 25 -58 29 -16 4 -44 22 -63 41 -34 34 -69 48 -154 61 -45 7 -114 36
-124 53 -3 4 -59 25 -123 46 -65 21 -127 46 -138 56 -11 10 -51 23 -90 30 -38
6 -85 18 -104 25 -18 8 -44 14 -58 14 -13 0 -36 6 -52 14 -57 30 -178 67 -236
73 -33 3 -71 13 -85 21 -14 9 -47 19 -75 23 -27 5 -79 15 -115 24 -36 8 -85
21 -110 27 -25 6 -76 16 -115 23 -38 6 -117 21 -175 33 -163 33 -447 72 -645
88 -98 7 -204 18 -235 24 -53 10 -804 21 -965 14z"/>
<path d="M14531 20076 c-26 -28 -20 -34 41 -42 64 -9 82 16 33 45 -45 26 -47
26 -74 -3z"/>
<path d="M11850 18968 c-576 -14 -807 -27 -835 -48 -24 -18 -105 -21 -127 -6
-42 29 -78 21 -76 -16 3 -37 -24 -46 -130 -47 -33 -1 -59 -7 -68 -16 -8 -8
-21 -12 -29 -8 -9 3 -21 1 -28 -5 -6 -5 -50 -13 -97 -17 -157 -12 -283 -47
-327 -91 -7 -7 -21 -10 -31 -8 -25 7 -72 -13 -72 -31 0 -16 -38 -21 -110 -17
-60 4 -130 -18 -140 -43 -6 -17 -20 -24 -54 -29 -31 -5 -49 -14 -57 -28 -8
-16 -17 -19 -40 -14 -15 3 -31 1 -34 -4 -3 -5 -31 -12 -62 -16 -31 -3 -68 -13
-82 -20 -14 -8 -34 -14 -43 -14 -9 0 -29 -7 -45 -14 -15 -8 -36 -17 -45 -20
-25 -8 -23 -50 4 -68 12 -8 18 -19 14 -26 -12 -20 -54 -14 -70 10 -15 21 -17
22 -33 5 -18 -18 -13 -28 21 -40 5 -2 6 -12 2 -23 -7 -18 -9 -17 -30 9 l-23
28 -81 -10 c-45 -6 -88 -8 -96 -5 -39 15 -68 -28 -44 -66 18 -28 -3 -48 -30
-28 -14 9 -38 12 -78 8 l-59 -5 3 -32 c4 -36 1 -38 -29 -23 -19 11 -89 -16
-104 -40 -3 -5 -12 -10 -19 -10 -7 0 -30 -15 -49 -34 -20 -19 -51 -37 -69 -41
-50 -11 -129 -65 -123 -85 7 -22 -56 -83 -78 -74 -10 3 -27 -4 -44 -20 -23
-22 -33 -25 -68 -19 -81 14 -90 11 -93 -26 -2 -19 -10 -44 -19 -57 -16 -25
-11 -44 13 -44 23 0 16 -16 -17 -44 -24 -21 -41 -26 -71 -24 -29 1 -43 -3 -49
-15 -20 -35 -46 -20 -54 29 -6 42 -8 45 -33 42 -33 -4 -45 -77 -18 -107 19
-21 4 -41 -30 -41 -13 0 -29 -7 -38 -15 -8 -8 -27 -14 -42 -13 -15 2 -29 -3
-31 -9 -12 -35 -106 -114 -130 -108 -36 9 -83 -23 -83 -56 0 -19 -6 -30 -20
-34 -27 -9 -25 -23 5 -37 50 -23 29 -37 -61 -42 -44 -2 -71 -8 -78 -18 -6 -8
-19 -17 -29 -21 -11 -4 -18 -16 -17 -29 7 -87 -22 -128 -91 -128 -41 0 -46 -4
-186 -144 -108 -109 -148 -143 -162 -139 -16 4 -22 -3 -30 -31 -11 -42 -46
-75 -78 -76 -59 -1 -92 -37 -61 -68 15 -15 2 -29 -31 -34 -13 -1 -29 -12 -35
-23 -5 -11 -18 -32 -28 -47 -18 -27 -18 -28 2 -40 43 -27 -8 -78 -77 -78 -62
0 -115 -76 -67 -94 13 -5 14 -9 4 -21 -16 -19 -30 -19 -30 0 0 9 -9 15 -25 15
-19 0 -25 -5 -25 -22 0 -12 -9 -31 -20 -43 -16 -17 -18 -27 -10 -54 5 -18 6
-46 3 -62 -4 -20 0 -35 10 -47 8 -9 18 -34 22 -55 8 -41 39 -67 58 -48 9 9 8
17 -2 32 -16 27 0 49 23 29 21 -16 46 -6 46 19 0 15 9 23 32 29 23 6 34 16 39
36 14 50 50 67 76 36 20 -23 40 -25 62 -6 9 7 29 18 46 23 23 8 29 15 30 39 0
26 3 29 29 26 39 -4 52 18 23 40 -29 22 -15 36 41 39 33 3 46 -1 53 -14 14
-24 24 -21 37 8 6 14 18 25 26 25 8 0 27 -11 42 -25 26 -24 65 -32 98 -19 22
9 20 34 -3 34 -10 0 -24 6 -30 14 -17 21 2 29 49 21 40 -7 110 9 110 25 0 5
21 8 48 8 66 -1 138 16 161 36 11 10 24 15 30 12 22 -14 366 28 356 44 -17 27
82 83 109 61 9 -7 39 -8 97 -2 72 7 90 6 128 -10 54 -24 58 -24 66 0 3 11 13
22 21 25 20 8 94 -12 94 -25 0 -5 11 -15 25 -21 23 -10 25 -16 20 -52 -5 -34
-3 -45 14 -60 12 -11 21 -27 21 -37 0 -10 12 -24 28 -31 24 -12 27 -19 27 -62
0 -31 5 -51 13 -53 8 -3 12 7 12 30 0 102 32 87 51 -23 12 -74 68 -188 94
-192 11 -2 21 -12 23 -23 2 -11 10 -33 17 -50 7 -16 16 -46 19 -66 4 -20 15
-46 26 -59 10 -12 16 -28 13 -37 -3 -9 5 -25 21 -39 31 -30 33 -44 6 -67 -27
-23 -26 -27 15 -66 19 -18 36 -42 36 -54 2 -28 8 -135 10 -167 0 -13 9 -30 20
-38 11 -8 19 -25 19 -43 0 -39 -27 -50 -50 -19 -24 32 -41 22 -61 -41 -21 -63
-23 -89 -8 -122 8 -18 7 -32 -5 -61 -15 -37 -17 -38 -38 -24 -30 19 -48 12
-48 -18 0 -27 -93 -124 -120 -124 -10 0 -28 -9 -41 -19 -14 -10 -36 -21 -49
-23 -19 -2 -26 -10 -28 -32 -2 -16 -8 -34 -13 -40 -5 -6 -16 -19 -23 -30 -12
-18 -14 -17 -35 13 -24 34 -40 32 -88 -11 -17 -16 -38 -20 -115 -22 -73 -2
-93 -5 -93 -17 0 -9 14 -16 40 -19 29 -4 41 -10 43 -24 4 -18 -1 -19 -62 -13
-68 6 -121 -5 -129 -27 -7 -17 -189 -14 -195 3 -6 19 -71 41 -116 40 -22 -1
-81 8 -129 20 -48 11 -100 18 -115 15 -19 -4 -33 0 -41 10 -21 25 -91 22 -91
-4 0 -12 -6 -34 -14 -49 -13 -25 -13 -29 4 -44 11 -9 17 -23 14 -32 -9 -22
-41 -19 -47 5 -12 45 -73 16 -108 -51 -8 -15 -23 -42 -33 -60 -18 -30 -20 -58
-23 -242 -1 -114 -7 -216 -12 -226 -7 -13 -6 -24 6 -40 10 -15 13 -34 10 -57
-7 -40 12 -54 64 -46 24 4 29 9 29 32 0 20 6 31 20 35 23 7 50 -10 50 -31 0
-32 140 -49 290 -34 90 8 123 6 256 -19 26 -5 57 -3 85 5 53 16 72 12 94 -22
11 -18 22 -23 35 -19 13 4 25 -1 37 -14 22 -26 78 -28 92 -4 6 12 20 17 40 15
25 -2 33 3 41 22 8 21 17 25 77 30 160 15 263 34 263 50 0 7 -15 19 -32 27
-21 9 -34 22 -36 36 -5 33 33 38 106 14 79 -27 97 -26 157 9 98 57 115 63 134
46 23 -21 33 -20 54 4 13 16 23 19 45 13 15 -5 55 -7 90 -6 55 1 66 -2 88 -24
29 -29 46 -26 54 8 6 23 8 24 86 20 48 -2 85 -8 94 -17 14 -12 82 -44 94 -44
2 0 2 8 -1 19 -7 27 15 36 38 15 15 -14 40 -18 106 -20 66 -2 88 -6 95 -18 11
-20 37 -21 44 -1 4 9 18 15 38 14 17 0 42 2 56 6 28 7 76 -22 53 -31 -35 -15
8 -71 66 -86 20 -5 50 -12 66 -15 17 -3 36 -10 42 -15 14 -11 255 -16 315 -7
39 6 78 33 78 55 0 16 31 34 58 34 30 0 48 27 34 51 -21 33 -15 59 14 59 l25
0 -7 -72 c-7 -67 -6 -72 9 -59 10 7 17 28 17 47 0 18 5 36 11 40 6 3 8 16 5
29 -3 12 -6 125 -7 251 0 234 -7 291 -35 315 -14 12 -19 11 -32 -9 -20 -30
-31 -28 -47 13 -11 25 -12 41 -5 60 6 15 10 31 10 36 0 15 -37 10 -44 -6 -18
-47 -86 -3 -86 56 0 32 -7 47 -40 83 -22 24 -40 50 -40 57 0 8 -6 24 -14 35
-18 25 -38 162 -30 202 4 18 1 32 -6 37 -20 13 -28 -14 -23 -83 4 -70 -6 -89
-39 -71 -14 8 -16 14 -8 29 13 24 2 125 -17 164 -9 18 -12 41 -9 61 4 19 2 36
-4 40 -12 8 -13 50 -1 73 6 11 5 33 -2 59 -8 33 -8 54 2 93 10 39 10 54 1 65
-17 21 -8 59 15 63 46 9 66 42 60 100 -6 67 5 91 40 85 51 -10 55 5 54 181 0
88 -6 181 -12 206 l-12 45 -50 0 -50 0 -8 -52 c-6 -35 -13 -53 -23 -53 -19 0
-19 88 0 115 7 11 17 35 21 53 5 27 11 32 35 32 30 0 44 21 35 51 -8 25 -27
24 -43 -1 -7 -11 -23 -20 -37 -20 -33 0 -41 36 -26 116 14 68 10 84 -19 84
-21 0 -60 57 -60 88 0 12 -8 25 -17 30 -18 11 -29 98 -14 116 25 32 28 159 5
216 -21 51 1 102 56 130 43 22 50 35 50 91 0 26 7 46 20 59 11 11 20 28 20 38
0 34 16 45 58 40 l39 -6 19 62 c18 57 21 62 57 70 39 10 41 17 22 68 -3 8 12
33 35 56 24 26 40 52 40 67 0 24 4 27 44 29 13 1 22 12 28 31 4 16 14 34 21
40 8 5 20 24 28 40 12 24 21 30 48 30 25 1 41 9 63 34 l29 33 121 2 c80 1 124
-2 132 -9 14 -15 76 -43 96 -44 8 -1 49 -5 90 -10 53 -5 85 -4 110 5 58 21
137 25 150 8 13 -15 80 -20 80 -5 0 5 -7 14 -15 21 -13 11 -12 15 10 36 14 13
25 28 25 35 0 8 14 10 45 6 39 -6 47 -4 60 16 14 22 16 23 222 20 116 -2 209
-7 213 -12 13 -22 70 -32 162 -30 57 2 102 -2 110 -8 7 -6 22 -13 34 -17 12
-3 26 -17 32 -30 9 -21 15 -23 56 -19 33 4 53 1 73 -12 23 -16 32 -16 75 -5
46 11 49 11 67 -11 15 -19 21 -21 34 -11 20 17 46 5 53 -24 8 -31 40 -54 75
-54 16 0 32 -8 41 -21 11 -17 25 -22 78 -24 70 -3 81 -12 50 -40 -20 -18 -20
-19 44 -82 61 -60 64 -65 55 -95 -9 -33 25 -77 73 -93 10 -4 21 -17 24 -29 3
-13 30 -45 60 -71 51 -46 66 -76 44 -90 -17 -11 -11 -48 15 -90 25 -41 35
-125 15 -125 -5 0 -10 -25 -10 -55 0 -49 3 -57 24 -64 13 -5 26 -17 29 -25 4
-11 19 -16 42 -16 22 0 38 -6 41 -15 3 -8 14 -17 25 -20 24 -8 25 -42 2 -90
-17 -35 -16 -37 7 -80 19 -35 23 -56 22 -112 -16 -538 -14 -608 20 -655 10
-14 9 -21 -6 -37 -28 -30 -14 -65 32 -84 22 -9 43 -26 50 -41 6 -14 19 -26 27
-26 25 0 40 -45 27 -76 -10 -20 -9 -30 3 -47 20 -28 19 -106 -1 -136 -15 -21
-15 -26 0 -65 21 -55 20 -73 -3 -81 -17 -5 -20 -15 -19 -68 1 -61 -9 -192 -18
-234 -2 -12 -13 -25 -25 -28 -14 -5 -19 -13 -16 -26 4 -13 -13 -36 -54 -78
-32 -32 -59 -67 -59 -78 0 -11 -23 -42 -50 -69 -72 -70 -73 -74 -79 -229 -8
-180 -24 -185 -31 -8 -6 165 -21 193 -40 77 -5 -32 -14 -60 -19 -62 -6 -2 -22
-13 -36 -24 l-27 -21 3 -226 c2 -124 0 -235 -4 -247 -5 -14 -2 -25 7 -33 12
-11 17 -6 26 31 6 24 19 49 27 55 13 10 17 42 22 155 8 197 26 179 27 -27 1
-183 7 -221 37 -237 28 -15 47 -34 47 -47 0 -6 4 -11 8 -11 5 0 37 -27 70 -60
l62 -60 64 0 c61 0 65 1 74 28 9 26 15 28 98 40 170 25 157 20 149 59 -7 37 7
63 32 63 8 0 26 9 40 20 22 17 41 20 130 20 57 0 114 5 125 11 11 6 68 11 127
11 77 0 110 4 122 15 10 8 42 17 73 20 53 5 56 5 65 -21 13 -31 46 -35 61 -6
12 23 55 27 67 6 14 -24 47 -27 87 -5 l38 20 24 -26 c23 -25 26 -26 49 -11 19
13 32 14 72 5 106 -23 150 -23 193 0 45 23 64 20 55 -9 -18 -56 41 -78 75 -30
23 32 48 34 79 4 12 -11 11 -15 -11 -23 -61 -23 -43 -76 30 -87 41 -6 48 -4
66 18 39 48 98 40 81 -11 -5 -17 0 -22 33 -31 46 -12 375 -12 407 0 26 10 162
13 357 9 154 -3 191 4 203 42 14 42 75 33 75 -11 0 -33 33 -46 74 -30 22 8 24
13 19 44 -3 23 0 42 10 57 12 17 14 27 5 42 -11 22 -14 323 -3 358 13 40 -35
156 -66 163 -17 3 -30 14 -34 28 -3 13 -22 57 -42 99 l-35 75 -42 -6 c-22 -3
-52 -13 -66 -22 -48 -31 -85 -32 -104 -3 -21 31 -62 34 -71 4 -4 -11 -20 -25
-37 -31 -16 -6 -33 -21 -38 -34 -12 -31 -38 -31 -50 1 -10 25 -10 25 -42 9
-18 -9 -36 -21 -39 -26 -13 -20 -226 -16 -243 4 -18 21 -24 21 -127 18 l-76
-2 -48 51 c-47 49 -51 51 -89 46 -50 -8 -86 19 -86 65 0 31 -30 59 -86 77 -64
22 -170 105 -159 124 12 19 -8 51 -40 65 -41 17 -67 65 -60 108 8 40 -11 66
-55 75 l-35 7 0 104 c0 100 3 117 36 180 79 149 77 144 49 197 -28 53 -10 116
30 106 24 -6 39 41 21 66 -33 46 -13 76 45 65 18 -3 40 -1 50 5 48 27 48 27
24 61 -20 29 -22 36 -12 64 7 18 12 44 12 59 0 54 17 79 52 75 27 -2 33 1 38
21 3 14 19 32 35 41 19 11 35 30 43 55 16 49 63 95 90 88 13 -3 25 3 35 17 13
19 21 21 56 15 33 -5 49 -2 78 15 44 26 200 34 230 13 9 -7 29 -13 45 -13 26
0 34 -12 26 -37 -4 -11 74 -21 165 -22 43 -1 88 -6 99 -12 12 -6 63 -13 114
-14 84 -3 96 -5 129 -31 32 -24 40 -26 66 -17 30 12 69 7 69 -8 0 -13 68 -28
105 -22 19 3 42 3 51 -1 25 -10 -2 -36 -37 -36 -44 0 -37 -28 9 -35 20 -3 50
-12 66 -21 20 -10 32 -12 40 -4 7 7 6 10 -4 10 -25 0 -41 16 -34 33 8 23 41
22 48 -1 9 -29 154 -62 168 -39 13 25 51 21 76 -8 12 -14 31 -25 42 -25 14 0
20 -7 20 -23 0 -29 47 -75 86 -86 19 -5 35 -19 45 -41 28 -58 148 -99 253 -86
50 7 56 10 56 31 0 13 5 35 11 49 9 20 9 29 -1 41 -23 28 -48 18 -69 -31 -25
-55 -43 -53 -54 7 -4 24 -13 54 -19 66 -9 19 -7 25 12 41 20 16 21 19 6 31 -9
7 -16 26 -16 41 0 21 -6 29 -22 34 -50 12 -108 60 -118 97 -7 27 -40 65 -124
147 -82 80 -113 116 -110 129 3 12 -8 30 -30 52 -20 19 -36 45 -36 57 0 12
-10 28 -22 36 -52 34 -108 101 -108 127 0 50 -43 70 -59 27 -11 -27 -112 -37
-144 -14 -22 17 11 78 42 78 29 0 34 16 15 45 -18 27 -68 45 -106 38 -19 -4
-29 2 -44 25 -27 43 -132 135 -146 129 -23 -8 -48 13 -48 39 0 13 -7 27 -15
30 -8 3 -23 20 -33 38 -14 23 -39 42 -82 62 -40 18 -67 38 -76 55 -10 20 -19
26 -33 22 -13 -3 -30 5 -50 26 -23 24 -39 31 -68 31 -67 0 -99 56 -53 90 23
17 23 19 6 45 -23 35 -85 62 -97 43 -12 -19 -11 -21 12 -41 27 -23 22 -61 -8
-65 -19 -3 -23 1 -23 25 0 21 -15 43 -60 87 -33 32 -60 67 -60 76 0 53 -38 68
-66 25 -19 -29 -32 -31 -49 -8 -13 18 -35 10 -35 -13 0 -8 -9 -14 -19 -14 -19
0 -31 18 -31 50 0 11 -10 19 -28 23 -58 12 -62 77 -6 91 17 5 24 12 22 24 -3
14 -13 16 -67 14 -47 -3 -72 1 -97 14 -29 16 -38 16 -67 6 -56 -20 -89 11 -74
68 4 15 -1 22 -21 27 -15 3 -38 14 -51 25 -13 10 -32 18 -41 18 -10 0 -23 7
-30 15 -7 8 -21 15 -32 15 -10 0 -30 12 -43 26 -14 15 -39 29 -57 33 -25 5
-34 14 -42 38 l-9 32 -63 -6 c-58 -5 -64 -4 -87 21 -13 14 -30 26 -36 26 -7 0
-25 10 -41 21 -16 12 -47 23 -70 25 -29 2 -47 9 -57 23 -8 12 -22 21 -31 21
-10 0 -36 9 -57 20 -23 12 -50 18 -62 15 -23 -5 -68 32 -78 66 -10 29 -45 31
-57 3 -14 -31 -34 -25 -31 10 2 24 -10 32 -40 27 -4 -1 -33 6 -64 15 -31 9
-69 13 -86 10 -18 -4 -38 -1 -51 8 -12 7 -37 17 -56 21 -47 10 -106 41 -113
59 -10 26 -79 40 -122 26 -35 -12 -39 -11 -62 14 -16 18 -35 26 -61 28 -20 0
-48 3 -62 5 -14 2 -72 9 -130 16 -104 12 -105 13 -103 39 1 25 0 26 -55 26
-89 1 -228 28 -252 48 -11 9 -88 14 -285 19 -149 3 -292 10 -320 15 -72 14
-274 16 -635 8z m3634 -984 c29 -11 19 -44 -13 -44 -33 0 -46 13 -37 35 6 16
24 19 50 9z m420 -259 c3 -8 12 -15 21 -15 8 0 15 -9 15 -20 0 -11 -6 -20 -13
-20 -14 0 -67 50 -67 63 0 14 38 7 44 -8z m1097 -891 l24 -26 -22 -15 c-13 -9
-23 -22 -23 -29 0 -8 -7 -14 -15 -14 -11 0 -15 12 -15 48 0 70 12 78 51 36z
m-703 -231 c3 -10 -17 -13 -76 -13 -83 0 -112 6 -112 21 0 15 183 6 188 -8z
m-5678 -2129 c15 -38 12 -71 -6 -78 -25 -10 -34 2 -34 48 0 61 22 78 40 30z
m-3312 -410 l37 -16 -22 -15 c-13 -9 -23 -22 -23 -29 0 -20 -16 -17 -50 8 -44
32 -39 59 13 67 4 0 24 -6 45 -15z m9472 -14 c0 -14 -50 -32 -68 -25 -11 4
-12 8 -2 20 14 17 70 21 70 5z m-6476 -35 c-3 -22 -55 -38 -71 -22 -9 8 -12
20 -8 27 8 13 80 9 79 -5z"/>
<path d="M10788 17740 c-26 -16 -40 -74 -41 -173 -2 -88 0 -98 44 -207 79
-195 77 -186 49 -215 -13 -14 -29 -25 -36 -25 -16 0 -114 89 -114 104 0 24
-70 94 -101 101 -75 17 -150 -86 -179 -244 -14 -78 4 -267 30 -321 10 -19 21
-55 25 -79 5 -29 17 -53 35 -70 15 -14 44 -55 65 -91 22 -36 53 -81 71 -100
49 -54 54 -71 64 -213 12 -178 18 -218 42 -319 26 -104 16 -133 -49 -143 -74
-12 -82 -16 -117 -53 -47 -49 -66 -108 -66 -205 0 -88 26 -248 46 -289 8 -15
14 -36 14 -46 0 -37 70 -159 114 -200 61 -56 116 -82 191 -89 83 -8 78 6 115
-333 17 -161 18 -226 5 -405 -10 -138 -82 -319 -157 -393 -75 -74 -132 -123
-159 -138 -19 -9 -63 -37 -98 -61 -52 -36 -82 -48 -155 -64 -115 -26 -147 -20
-236 42 -95 67 -156 102 -215 124 -27 10 -57 24 -65 31 -15 12 -137 48 -225
65 -171 34 -219 42 -300 49 -126 12 -390 2 -433 -16 -19 -8 -44 -14 -56 -14
-28 0 -221 -57 -271 -81 -22 -10 -59 -25 -83 -33 -60 -21 -206 -99 -243 -130
-44 -37 -106 -35 -217 8 -355 139 -669 151 -1067 40 -129 -35 -185 -26 -185
29 0 12 -2 123 -6 247 -13 477 -13 524 1 555 7 17 20 59 29 94 9 35 32 94 51
130 19 37 35 70 35 74 0 4 18 36 39 72 22 36 43 75 47 87 4 13 20 38 35 56 16
18 29 37 29 42 0 6 14 25 31 43 17 17 39 48 50 68 28 56 100 59 200 9 21 -11
67 -27 101 -34 35 -8 83 -21 108 -29 25 -8 77 -22 115 -31 39 -9 95 -23 125
-31 39 -11 78 -14 135 -10 74 6 106 13 267 61 31 9 67 27 79 40 12 13 30 24
40 24 9 0 32 15 51 33 19 17 64 53 100 79 148 107 177 284 77 480 -17 33 -110
271 -134 343 -7 22 -23 58 -34 80 -12 21 -21 44 -21 51 0 21 -52 105 -74 118
-31 20 -292 -5 -344 -33 -11 -6 -50 -13 -88 -16 -38 -4 -80 -11 -94 -16 -14
-5 -74 -18 -135 -28 -164 -29 -295 -59 -308 -69 -7 -5 -34 -13 -62 -17 -27 -3
-84 -22 -126 -41 -42 -19 -84 -34 -93 -34 -26 0 -254 -109 -291 -139 -11 -9
-42 -27 -70 -41 -49 -25 -140 -110 -267 -251 -121 -134 -162 -186 -216 -275
-30 -49 -69 -109 -88 -134 -18 -25 -42 -56 -51 -70 -9 -14 -31 -41 -49 -61
-17 -20 -44 -58 -60 -85 -15 -27 -42 -66 -60 -86 -18 -20 -45 -56 -60 -78 -15
-23 -40 -48 -56 -56 -15 -8 -34 -29 -42 -47 -7 -17 -33 -54 -58 -82 -25 -27
-49 -59 -55 -69 -6 -10 -27 -37 -48 -60 -74 -82 -205 -248 -205 -260 0 -7 -15
-33 -33 -57 -71 -95 -187 -312 -187 -349 0 -6 -18 -46 -39 -88 -22 -42 -42
-93 -46 -112 -4 -19 -24 -89 -46 -154 -21 -65 -39 -130 -39 -143 0 -13 -9 -63
-19 -111 -35 -157 -64 -344 -91 -584 -5 -42 -10 -195 -11 -340 l-3 -263 32
-60 c17 -33 34 -73 37 -89 12 -57 149 -178 243 -214 46 -18 91 -32 100 -32 10
0 60 -11 112 -23 103 -25 161 -59 253 -149 26 -27 52 -48 57 -48 4 0 27 -15
49 -34 23 -19 66 -46 96 -60 29 -14 57 -30 60 -36 7 -12 292 -154 341 -170 20
-7 48 -18 62 -26 15 -8 32 -14 39 -14 7 0 27 -6 45 -14 53 -23 190 -64 249
-75 55 -10 129 -26 274 -58 132 -30 847 -27 1000 4 61 12 188 34 283 49 216
33 202 42 213 -133 9 -148 24 -252 39 -267 5 -5 10 -21 10 -34 0 -14 21 -68
46 -121 68 -142 84 -172 118 -215 17 -22 40 -54 51 -72 26 -42 144 -189 188
-234 70 -72 187 -229 187 -252 0 -4 12 -13 26 -21 14 -7 35 -29 47 -49 26 -43
167 -234 196 -266 11 -12 26 -32 32 -45 7 -12 29 -41 50 -63 20 -23 45 -57 54
-75 10 -19 32 -52 49 -74 42 -53 124 -179 135 -208 5 -12 27 -44 49 -71 22
-27 43 -61 47 -75 4 -14 12 -33 20 -41 21 -25 85 -150 85 -169 0 -9 13 -32 28
-51 16 -19 32 -46 35 -60 3 -14 22 -79 41 -145 73 -249 57 -424 -75 -826 -29
-91 -69 -269 -69 -312 0 -14 -5 -29 -11 -33 -17 -10 -4 -286 16 -344 32 -92
161 -315 214 -371 9 -9 32 -38 51 -63 19 -26 52 -67 72 -91 20 -25 42 -53 50
-63 7 -10 29 -28 49 -40 47 -28 91 -95 87 -130 -5 -41 -77 -36 -117 7 -16 17
-34 31 -40 31 -6 0 -48 37 -95 83 -137 132 -256 241 -279 254 -50 28 -107 2
-107 -48 0 -9 -13 -41 -28 -70 -29 -57 -64 -159 -107 -319 -15 -52 -31 -104
-36 -116 -15 -29 -55 -216 -80 -364 -11 -69 -27 -147 -34 -175 -8 -27 -19 -93
-24 -145 -24 -210 -30 -261 -37 -271 -3 -6 -10 -40 -15 -77 -5 -37 -13 -96
-19 -132 -35 -218 -21 -400 29 -400 9 0 25 -6 36 -14 11 -7 44 -19 73 -26 28
-6 55 -16 58 -21 3 -5 13 -9 22 -9 9 0 30 -7 46 -15 15 -8 40 -15 55 -15 14 0
50 -11 80 -25 29 -14 79 -28 110 -31 31 -3 70 -12 86 -19 26 -12 177 -48 315
-75 25 -5 95 -20 155 -34 138 -30 251 -51 430 -76 77 -11 194 -29 260 -39 218
-34 427 -44 965 -43 487 1 627 6 815 32 44 6 127 17 185 25 58 8 143 19 190
26 47 6 112 17 145 25 33 8 76 14 95 14 19 0 80 11 135 25 55 14 116 25 135
25 19 1 46 7 60 15 14 8 42 14 62 15 21 0 61 9 90 21 30 11 62 18 75 14 13 -3
36 1 51 9 37 20 121 46 148 46 31 0 122 28 166 51 20 10 48 19 61 19 13 0 32
7 43 15 10 8 26 15 34 15 9 0 33 9 55 20 22 11 45 20 53 20 7 0 27 7 43 16
l30 15 -4 132 c-3 73 -12 182 -20 242 -9 61 -16 129 -16 153 -1 23 -5 50 -10
60 -8 14 -23 111 -45 282 -13 99 -29 186 -52 290 -14 63 -32 147 -40 185 -8
39 -21 90 -28 115 -13 45 -19 65 -51 190 -9 36 -26 83 -36 106 -10 23 -19 56
-19 73 0 18 -7 45 -15 62 -9 16 -25 60 -36 97 -29 93 -42 112 -82 112 -42 0
-114 -51 -242 -171 -77 -72 -150 -135 -177 -152 -15 -10 -35 -31 -43 -48 -22
-41 -78 -40 -83 3 -3 28 32 108 47 108 5 0 32 28 60 63 27 34 67 82 87 107 63
79 145 194 166 235 12 22 31 54 44 70 35 46 83 199 90 287 8 91 -12 315 -34
373 -8 22 -18 67 -22 100 -4 33 -12 74 -18 90 -6 17 -18 64 -28 105 -9 41 -23
102 -30 135 -31 131 -36 165 -44 285 -9 142 3 300 26 335 9 13 22 47 29 76 8
28 22 61 33 73 10 11 49 86 86 166 37 80 76 154 86 165 10 11 26 36 35 55 10
19 31 50 46 68 16 18 29 38 29 45 0 7 21 41 45 77 25 36 79 115 119 175 41 61
88 122 105 138 17 15 31 34 31 42 0 8 19 34 43 58 23 24 62 75 87 112 25 37
66 91 92 121 26 29 52 63 59 76 6 13 22 34 35 48 83 89 134 148 134 158 0 7 9
17 19 24 11 7 44 45 73 86 29 41 74 104 101 140 26 35 47 68 47 72 0 4 25 54
57 111 92 170 153 389 153 551 0 95 18 107 127 84 78 -17 210 -42 353 -68 140
-25 890 -18 1020 10 58 12 119 22 135 22 17 0 37 6 43 13 7 6 43 17 80 23 91
15 201 43 235 60 16 8 36 14 44 14 9 0 30 9 47 19 17 11 51 24 75 31 25 6 61
23 80 36 20 13 40 24 45 24 30 0 264 132 356 201 14 10 66 46 115 80 50 34
105 74 122 90 34 29 49 35 203 70 355 81 496 333 446 799 -9 85 -23 218 -31
295 -40 369 -63 524 -99 665 -46 179 -53 197 -171 501 -37 93 -95 199 -132
240 -13 14 -23 29 -23 33 0 5 -16 26 -35 47 -19 22 -35 45 -35 52 0 15 -47 83
-85 123 -17 18 -39 44 -50 59 -34 46 -86 107 -156 180 -36 39 -70 81 -74 95
-4 13 -25 43 -45 65 -89 95 -150 165 -150 174 0 5 -18 32 -40 60 -22 28 -40
53 -40 56 0 4 -20 31 -45 62 -25 31 -64 85 -86 122 -53 87 -120 183 -158 227
-17 19 -31 38 -31 43 0 17 -148 173 -245 258 -104 92 -391 252 -491 273 -21 5
-70 20 -109 34 -38 14 -86 26 -106 26 -20 0 -42 7 -49 15 -7 8 -22 15 -34 15
-11 0 -70 11 -131 24 -233 52 -262 58 -330 67 -38 6 -92 16 -120 24 -169 45
-333 44 -362 -3 -10 -15 -27 -39 -39 -54 -13 -15 -28 -54 -34 -85 -6 -32 -17
-71 -25 -88 -7 -16 -23 -61 -34 -100 -20 -67 -42 -123 -81 -210 -59 -130 -90
-232 -90 -298 0 -48 3 -53 77 -135 43 -47 92 -91 109 -98 17 -7 39 -25 48 -39
9 -14 23 -25 30 -25 8 0 27 -10 43 -23 64 -51 226 -105 354 -117 96 -9 221 8
329 44 137 46 241 79 284 92 27 7 59 20 72 29 60 39 86 22 166 -106 29 -47 75
-118 101 -158 27 -41 52 -83 57 -95 4 -11 17 -30 29 -40 11 -11 21 -25 21 -32
0 -7 14 -42 30 -79 64 -143 73 -205 65 -440 -12 -310 -12 -422 -1 -497 12 -93
-6 -124 -68 -113 -97 16 -133 23 -161 33 -141 49 -627 78 -720 42 -16 -6 -70
-22 -121 -36 -50 -13 -125 -38 -165 -55 -97 -42 -213 -40 -271 4 -19 15 -38
27 -42 27 -4 0 -31 15 -60 34 -64 41 -197 103 -246 116 -19 5 -54 16 -77 24
-24 9 -75 19 -115 22 -40 4 -82 12 -94 19 -27 17 -339 27 -449 14 -129 -15
-249 -39 -325 -64 -30 -10 -75 -24 -100 -32 -25 -8 -67 -25 -95 -38 -27 -14
-84 -39 -125 -56 -41 -17 -105 -51 -141 -75 -122 -80 -196 -76 -369 20 -133
74 -230 148 -269 206 -17 25 -49 70 -71 101 -85 116 -124 414 -90 674 36 281
38 289 83 310 18 8 39 18 47 23 8 5 39 21 69 37 136 70 235 183 247 281 3 27
15 76 27 109 15 44 21 94 25 185 4 124 4 125 -22 149 -14 14 -26 29 -26 35 0
19 -68 86 -87 86 -91 0 -126 43 -100 123 21 66 65 272 76 357 24 182 -48 561
-124 651 -14 17 -25 39 -25 50 0 10 -10 25 -23 34 -29 18 -63 114 -77 210 -24
175 -38 205 -159 335 -72 78 -252 177 -361 199 -198 40 -582 55 -780 31 -41
-5 -115 -14 -163 -20 -48 -5 -97 -15 -108 -20 -32 -18 -197 -41 -289 -42 -91
0 -195 27 -296 77 -59 30 -112 40 -136 25z m-1347 -4346 c31 -8 73 -14 92 -14
19 0 40 -6 46 -14 7 -8 28 -17 49 -21 20 -4 62 -17 92 -29 30 -13 80 -32 110
-42 30 -10 66 -26 79 -36 13 -10 34 -18 46 -18 30 0 132 -47 175 -81 19 -15
47 -31 63 -35 15 -3 33 -14 40 -24 6 -9 28 -25 47 -35 38 -20 106 -73 154
-121 47 -47 58 -51 261 -79 429 -59 585 -107 762 -233 64 -45 133 -138 203
-272 22 -41 71 -181 85 -243 7 -32 16 -66 20 -75 4 -9 11 -55 15 -102 5 -47
15 -119 22 -160 23 -138 17 -590 -10 -747 -27 -155 -44 -197 -117 -295 -30
-40 -55 -76 -55 -80 0 -15 -121 -97 -153 -103 -17 -4 -43 -17 -57 -30 -51 -47
-135 -60 -361 -58 -150 1 -222 6 -266 17 -34 9 -73 16 -89 16 -23 0 -169 59
-229 92 -11 7 -40 23 -65 37 -90 49 -250 194 -250 226 0 9 -6 18 -14 21 -7 3
-28 28 -46 57 -18 29 -43 68 -56 87 -12 19 -33 60 -47 90 -13 30 -35 69 -49
85 -14 17 -31 47 -37 67 -11 33 -95 199 -121 238 -6 8 -15 26 -21 40 -6 14
-26 57 -44 95 -18 39 -46 97 -60 130 -15 33 -35 69 -45 80 -10 11 -20 36 -24
56 -4 21 -15 48 -25 60 -26 33 -131 236 -131 253 0 7 -7 19 -16 27 -9 7 -28
38 -44 69 -16 32 -40 71 -54 87 -14 17 -26 36 -26 41 0 6 -15 31 -34 55 -19
25 -41 58 -49 74 -8 15 -27 39 -42 53 -15 14 -36 43 -47 65 -11 22 -42 63 -69
92 -27 28 -49 57 -49 63 0 10 -88 115 -155 184 -11 12 -32 35 -46 53 -15 17
-42 40 -61 50 -107 56 -131 87 -112 141 18 49 245 126 409 139 39 3 88 11 110
18 48 16 212 10 296 -11z m5567 -5 c43 -12 100 -29 127 -39 47 -17 125 -40
186 -54 67 -15 57 -95 -16 -146 -66 -45 -335 -316 -335 -337 0 -5 -23 -36 -51
-68 -28 -33 -62 -80 -76 -105 -15 -25 -38 -58 -53 -75 -15 -16 -39 -55 -54
-85 -16 -30 -36 -64 -46 -75 -31 -33 -170 -281 -170 -301 0 -6 -16 -38 -35
-70 -19 -32 -35 -62 -35 -67 0 -5 -13 -27 -29 -50 -16 -23 -32 -58 -36 -77 -4
-19 -20 -53 -36 -75 -16 -22 -34 -57 -40 -79 -6 -22 -26 -62 -45 -90 -19 -28
-34 -56 -34 -62 0 -12 -127 -265 -141 -278 -5 -6 -9 -17 -9 -27 0 -9 -10 -29
-22 -44 -12 -15 -35 -53 -50 -84 -16 -31 -46 -85 -68 -121 -21 -36 -46 -78
-56 -95 -50 -91 -313 -300 -415 -330 -13 -4 -51 -19 -84 -35 -201 -93 -740
-101 -838 -13 -12 11 -39 26 -60 33 -24 7 -45 23 -57 42 -10 17 -30 38 -44 47
-29 20 -93 105 -126 171 -81 159 -106 797 -45 1170 15 91 32 172 40 180 7 8
16 36 19 62 4 29 20 66 40 96 19 26 49 75 67 107 36 64 210 248 246 259 12 4
38 20 58 36 21 17 44 30 52 30 8 0 62 16 120 36 96 33 120 37 277 46 209 12
330 37 384 80 20 17 60 45 87 62 28 18 57 41 65 51 30 36 273 175 307 175 7 0
27 13 45 29 18 15 49 31 69 35 20 3 75 22 122 41 48 19 98 35 113 35 14 0 40
6 57 14 26 11 167 38 307 60 85 12 246 5 318 -15z m1824 -155 c51 -15 102 -33
113 -40 11 -8 26 -14 35 -14 8 0 32 -14 52 -30 20 -17 56 -37 80 -46 23 -8 54
-26 68 -39 14 -13 38 -27 53 -31 16 -3 31 -12 34 -20 2 -7 30 -30 61 -51 31
-21 90 -65 130 -98 110 -89 163 -123 300 -191 120 -59 108 -104 -45 -163 -59
-23 -116 -47 -127 -52 -10 -6 -45 -19 -79 -30 -33 -10 -65 -24 -72 -29 -7 -5
-44 -23 -84 -39 -39 -17 -78 -37 -87 -46 -8 -8 -22 -15 -30 -15 -8 0 -56 -17
-107 -39 -51 -21 -126 -49 -167 -61 -41 -12 -101 -32 -133 -43 -33 -11 -89
-24 -125 -28 -37 -5 -105 -13 -152 -19 -94 -12 -204 -5 -235 15 -11 7 -40 16
-63 20 -24 4 -114 36 -200 72 -289 120 -466 174 -567 173 -41 0 -190 26 -206
36 -25 15 0 109 33 119 10 4 18 10 18 14 0 47 293 330 440 426 41 26 93 60
115 74 61 41 231 121 254 121 12 0 47 9 78 20 32 10 94 24 138 30 44 6 100 15
125 19 103 19 254 12 352 -15z m-9207 -3 c44 -6 107 -20 139 -31 33 -11 68
-20 78 -20 16 0 100 -37 153 -68 11 -6 45 -22 76 -36 31 -14 72 -37 90 -53 19
-16 54 -39 78 -52 24 -13 61 -41 82 -62 21 -21 56 -51 77 -66 21 -16 51 -43
68 -61 16 -19 53 -59 82 -89 29 -31 62 -69 73 -85 12 -16 40 -48 65 -71 94
-91 70 -119 -116 -137 -152 -14 -296 -44 -371 -76 -31 -13 -63 -24 -71 -24 -8
0 -49 -18 -91 -40 -41 -22 -80 -40 -86 -40 -6 0 -49 -18 -95 -40 -61 -29 -96
-40 -130 -40 -26 0 -61 -8 -79 -17 -45 -24 -277 -25 -357 -2 -30 9 -77 20
-105 24 -27 3 -60 13 -72 21 -12 8 -30 14 -40 14 -10 0 -31 9 -48 20 -16 11
-42 20 -58 20 -15 0 -83 27 -150 60 -68 33 -132 60 -142 60 -10 0 -40 14 -65
30 -26 17 -83 43 -126 58 -44 16 -92 35 -109 44 -16 8 -55 23 -85 32 -159 46
-183 109 -65 168 135 68 212 115 219 133 3 8 24 24 48 36 24 12 63 39 88 60
25 21 69 59 98 84 29 25 58 45 66 45 7 0 23 12 37 26 13 14 51 39 84 55 33 15
78 38 100 50 81 45 93 49 295 83 43 7 281 -1 365 -13z m7363 -2194 c15 -56 5
-179 -18 -242 -11 -27 -27 -79 -36 -115 -39 -156 -174 -359 -286 -430 -29 -18
-64 -43 -78 -55 -30 -27 -203 -90 -225 -82 -21 9 -19 40 5 55 11 7 20 21 20
31 0 13 32 44 93 89 166 126 295 295 347 457 7 22 21 51 31 64 11 13 19 31 19
40 0 9 7 25 15 35 8 11 15 34 15 52 0 20 11 45 30 69 17 21 30 45 30 55 0 47
24 33 38 -23z m-5885 -76 c4 -4 16 -39 27 -77 18 -63 77 -207 101 -244 5 -8
20 -37 33 -65 30 -61 158 -201 254 -275 40 -31 76 -67 81 -82 7 -19 17 -28 31
-28 30 0 60 -18 60 -35 0 -46 -89 -75 -110 -36 -6 13 -25 22 -55 26 -24 4 -64
20 -88 35 -24 15 -53 31 -65 34 -21 7 -152 133 -152 147 0 4 -18 29 -40 54
-22 25 -43 57 -46 71 -4 14 -22 55 -40 92 -19 37 -34 76 -34 86 0 25 -38 152
-57 193 -36 75 44 158 100 104z m2503 -1622 c143 -44 263 -245 207 -345 -107
-186 -148 -204 -470 -204 -282 0 -326 16 -387 138 -108 217 -4 402 236 422
194 15 340 12 414 -11z m1279 1 c59 -18 92 -46 128 -106 18 -30 42 -72 54 -92
60 -98 -31 -279 -163 -327 -72 -26 -401 -34 -470 -12 -27 9 -71 19 -99 23
-107 15 -179 155 -150 294 13 63 16 69 58 122 33 41 91 83 146 104 46 18 434
13 496 -6z m-1275 -972 c189 -73 263 -237 180 -397 -70 -136 -284 -202 -538
-167 -217 31 -294 84 -328 225 -16 66 -18 131 -5 163 21 52 155 176 204 189
52 13 446 3 487 -13z m1228 13 c57 -1 52 2 172 -113 23 -22 43 -54 49 -75 35
-133 34 -123 2 -195 -41 -90 -85 -132 -164 -157 -188 -58 -382 -52 -557 16
-124 48 -155 97 -154 239 0 150 35 197 209 283 12 6 95 8 205 6 102 -2 209 -4
238 -4z m32 -998 c17 -10 45 -26 62 -35 33 -18 100 -94 124 -140 41 -79 -3
-255 -78 -311 -82 -61 -379 -87 -543 -48 -146 36 -161 46 -228 162 -30 50 -38
159 -16 216 15 41 88 111 123 119 17 3 51 15 76 27 90 40 415 47 480 10z
m-1246 -17 c27 -14 54 -26 61 -26 11 0 95 -110 95 -124 0 -4 10 -20 21 -35 45
-61 12 -168 -83 -263 -34 -35 -55 -48 -75 -48 -16 0 -47 -10 -68 -22 -47 -25
-313 -33 -395 -11 -25 7 -57 14 -72 17 -28 6 -158 111 -158 128 0 6 -9 23 -20
38 -26 37 -29 139 -5 194 64 147 177 188 505 181 134 -2 149 -5 194 -29z"/>
<path d="M9214 13085 c2 -37 8 -51 34 -75 18 -16 32 -38 32 -49 0 -10 14 -31
30 -44 18 -16 30 -35 30 -50 0 -13 11 -33 25 -45 16 -14 25 -32 25 -52 0 -16
7 -48 16 -70 l16 -40 47 6 c41 5 50 3 80 -24 33 -28 35 -52 6 -52 -35 0 -20
-78 20 -104 14 -9 25 -23 25 -31 0 -16 9 -28 66 -90 34 -38 42 -55 24 -55 -13
0 -13 -47 0 -55 5 -3 7 -19 3 -35 -12 -61 41 -81 79 -30 31 42 58 40 58 -5 0
-19 4 -35 9 -35 17 0 22 -33 7 -49 -26 -30 -28 -58 -7 -73 16 -12 21 -30 27
-106 8 -102 17 -118 46 -78 23 31 38 26 38 -12 1 -15 7 -38 15 -52 8 -14 14
-34 15 -45 0 -12 9 -38 20 -60 11 -22 20 -49 20 -61 0 -22 34 -43 47 -30 15
15 43 -15 33 -35 -9 -15 -7 -20 5 -24 8 -3 22 -7 30 -10 8 -2 15 -13 15 -24 0
-11 18 -33 39 -51 22 -17 43 -40 46 -51 6 -17 12 -20 38 -15 207 42 283 31
270 -38 -4 -18 0 -28 11 -32 9 -3 32 -20 50 -38 19 -17 49 -44 67 -60 49 -43
79 -93 79 -130 0 -35 52 -109 99 -142 26 -19 27 -39 2 -56 -37 -26 -37 -76 0
-111 l34 -31 157 -1 c147 -2 156 -1 147 16 -5 10 -9 31 -9 48 0 29 2 31 36 31
27 0 43 7 61 26 20 21 31 25 57 21 39 -6 61 5 53 27 -4 10 9 31 39 60 44 42
46 46 39 84 -6 40 19 74 40 54 4 -4 5 9 2 28 -25 143 -17 216 24 222 34 5 34
25 -1 58 -41 38 -44 63 -33 278 l8 163 -23 20 c-18 15 -22 27 -18 44 9 35 -5
134 -20 150 -8 7 -14 21 -14 31 0 58 -25 95 -155 223 -82 80 -141 131 -153
131 -25 0 -55 28 -48 45 3 8 -2 11 -14 8 -10 -3 -26 0 -36 5 -12 7 -23 6 -35
-1 -13 -8 -24 -8 -41 0 -13 6 -50 14 -83 17 -70 7 -134 18 -229 40 -68 15 -70
15 -92 -5 -28 -27 -47 -16 -39 21 6 25 3 29 -24 35 -16 3 -35 13 -42 21 -6 8
-26 14 -43 15 -17 0 -40 4 -51 8 -11 5 -30 5 -42 0 -37 -14 -60 29 -39 72 13
26 14 34 4 41 -19 11 -23 10 -63 -13 -45 -27 -70 -20 -53 15 13 30 -2 56 -33
56 -11 0 -21 9 -25 24 -16 63 -73 70 -84 10 -4 -21 -12 -30 -35 -35 -17 -4
-38 -10 -47 -14 -11 -4 -20 0 -28 15 -13 24 -6 36 25 42 29 5 30 83 0 83 -12
0 -25 -11 -33 -27 -16 -35 -36 -35 -64 -3 -13 15 -32 25 -47 25 -16 0 -31 8
-39 21 -11 18 -20 20 -52 15 -48 -8 -71 11 -65 54 l4 30 -54 0 c-30 0 -57 5
-60 10 -3 6 -21 10 -39 10 -18 0 -41 7 -52 15 -22 16 -55 19 -69 6 -24 -22
-73 -23 -85 -2 -6 12 -21 21 -34 21 -21 0 -23 -4 -22 -45z m886 -278 c0 -31
-4 -34 -39 -29 -56 8 -51 52 5 52 29 0 34 -3 34 -23z m205 -1322 c0 -12 -50
-19 -71 -11 -9 3 -12 11 -9 16 8 14 80 9 80 -5z"/>
<path d="M10146 11398 c-20 -29 -20 -57 0 -65 21 -8 34 13 34 55 0 37 -12 41
-34 10z"/>
<path d="M10316 11143 c-48 -7 -72 -30 -101 -94 -30 -68 -29 -103 6 -154 148
-214 420 -57 302 175 -35 69 -94 89 -207 73z"/>
<path d="M11318 10813 c-10 -2 -18 -8 -18 -13 0 -5 -15 -10 -32 -12 -41 -4
-45 -32 -6 -36 19 -2 30 3 38 17 7 14 21 21 40 21 20 0 30 5 30 15 0 15 -17
17 -52 8z"/>
<path d="M14455 13080 c-4 -6 -14 -8 -24 -5 -11 3 -28 -7 -50 -30 -33 -36 -36
-65 -6 -65 20 0 19 -16 -3 -32 -10 -7 -21 -21 -25 -30 -8 -22 -21 -23 -36 -4
-10 12 -8 17 8 26 25 13 28 50 5 50 -9 0 -18 9 -21 20 -10 39 -67 17 -76 -28
-5 -26 -11 -30 -53 -36 -26 -3 -56 -13 -65 -22 -17 -15 -21 -15 -55 1 -54 26
-116 3 -65 -25 11 -5 33 -7 50 -4 29 6 30 5 22 -22 -10 -39 -42 -52 -145 -60
-81 -7 -87 -9 -92 -31 -10 -38 -51 -73 -84 -73 -17 0 -30 -4 -30 -9 0 -19 -62
-71 -85 -71 -14 0 -29 -8 -35 -20 -11 -20 -40 -28 -40 -11 0 18 -34 22 -47 5
-8 -10 -20 -15 -34 -11 -17 5 -24 0 -32 -24 -6 -16 -16 -29 -22 -30 -5 -1 -28
-2 -50 -3 -22 -1 -52 -10 -67 -20 -20 -13 -34 -15 -59 -9 -18 5 -64 5 -103 1
-39 -4 -84 -5 -99 -2 -19 4 -49 -3 -93 -22 -63 -27 -66 -27 -94 -11 -38 23
-43 21 -38 -8 3 -14 2 -28 -2 -30 -4 -3 -11 -21 -14 -40 -8 -42 -31 -55 -51
-29 -18 25 -34 9 -46 -43 -4 -21 -16 -67 -27 -103 l-19 -65 -46 -3 c-42 -3
-47 -6 -52 -30 -3 -15 -10 -43 -15 -62 -24 -93 -32 -144 -26 -175 4 -20 2 -44
-4 -55 -24 -45 -9 -745 18 -818 5 -15 15 -46 21 -69 11 -38 15 -43 41 -43 17
0 30 -4 30 -9 0 -18 34 -22 47 -5 17 24 47 10 40 -18 -9 -32 9 -48 44 -41 35
7 42 -24 9 -45 -17 -10 -18 -16 -10 -32 13 -25 338 -32 342 -7 1 6 2 28 2 47
1 34 2 35 46 40 l45 5 0 60 c0 48 -5 67 -23 90 l-23 29 26 13 c17 9 25 22 25
39 0 21 8 29 41 42 31 12 39 20 35 34 -5 23 138 168 165 168 28 0 77 48 81 78
2 21 8 27 28 28 14 0 33 4 44 9 11 5 31 3 50 -3 17 -6 47 -9 67 -6 31 5 41 1
73 -27 52 -45 69 -21 45 62 -16 50 -1 69 53 69 31 0 39 3 37 18 -3 35 2 42 30
42 27 0 30 4 41 48 6 26 15 63 20 82 5 19 13 51 17 70 8 32 12 35 50 38 36 3
41 6 47 34 9 45 -5 110 -27 129 -13 10 -18 22 -14 32 9 24 22 21 35 -8 16 -35
72 -17 72 24 0 15 6 33 13 40 10 10 5 18 -22 40 l-35 28 25 9 c13 5 44 9 69 9
50 0 49 -2 72 114 9 43 20 69 35 81 14 11 20 24 17 37 -3 11 1 25 10 32 9 8
16 22 16 32 0 11 4 19 10 19 33 0 61 78 67 189 3 62 10 114 15 117 20 13 33
-19 33 -78 0 -38 4 -63 12 -65 19 -7 37 39 38 97 0 53 1 55 30 60 21 4 31 12
33 26 2 12 14 32 28 45 14 13 24 34 24 50 0 15 5 29 11 31 14 5 31 96 24 126
-5 21 -9 22 -125 22 -71 0 -121 -4 -125 -10z"/>
<path d="M13530 11125 c-120 -51 -133 -231 -22 -305 82 -54 195 -31 249 51 43
65 42 180 -2 215 -16 13 -41 33 -54 44 -32 27 -100 25 -171 -5z"/>
<path d="M16335 12943 c-27 -2 -57 -11 -65 -18 -10 -9 -20 -11 -30 -5 -25 16
-48 11 -55 -10 -14 -44 43 -69 67 -30 17 26 24 25 59 -7 40 -38 37 -43 -25
-43 -44 0 -56 -4 -69 -22 -15 -23 -15 -23 -65 -5 -61 21 -85 21 -121 2 -26
-13 -30 -13 -41 0 -7 8 -19 15 -26 15 -19 0 -18 -36 1 -44 34 -13 15 -29 -29
-24 l-43 5 23 -41 c13 -22 24 -49 24 -59 0 -10 11 -22 25 -27 14 -5 25 -14 25
-21 0 -13 69 -82 98 -98 11 -6 37 -11 56 -11 32 0 36 -4 44 -32 8 -31 11 -33
56 -34 33 -1 51 -7 61 -20 19 -27 292 -35 330 -10 14 9 62 21 106 27 85 10
116 23 125 51 3 10 15 18 27 18 12 0 49 8 82 19 33 11 74 23 90 28 36 10 40
37 5 41 -14 2 -32 10 -40 17 -8 7 -28 15 -45 17 -19 2 -30 9 -30 18 0 16 89
32 170 31 64 -1 74 12 34 48 -19 17 -42 31 -52 31 -10 0 -35 13 -55 30 -46 37
-93 48 -111 26 -12 -14 -16 -14 -42 -1 -15 8 -44 15 -64 15 -23 0 -38 5 -42
15 -8 22 0 27 54 32 82 6 86 29 7 39 -27 4 -57 14 -68 23 -18 16 -314 25 -451
14z"/>
<path d="M15868 12619 c-26 -15 -23 -58 5 -68 90 -34 136 -4 76 50 -34 31 -53
35 -81 18z"/>
<path d="M7357 12954 c-4 -5 -34 -10 -65 -11 -158 -7 -187 -15 -190 -50 l-3
-33 81 0 c72 0 81 -2 78 -17 -3 -15 -16 -18 -93 -19 -50 -1 -109 -2 -132 -3
-23 0 -45 -5 -48 -11 -3 -5 -14 -10 -24 -10 -25 0 -93 -35 -115 -59 -19 -21
-19 -22 3 -42 14 -13 20 -27 16 -39 -4 -13 1 -22 15 -30 26 -14 26 -37 0 -45
-25 -8 -26 -24 -2 -31 9 -3 30 -12 45 -20 16 -7 43 -14 62 -14 18 0 38 -7 46
-16 8 -10 21 -13 37 -9 19 5 31 -1 56 -28 31 -34 64 -46 136 -51 19 -1 43 -6
53 -10 27 -13 368 -2 394 12 12 7 25 21 28 32 3 11 13 20 21 20 8 0 22 9 31
20 13 14 30 20 61 20 50 0 148 78 139 111 -8 30 9 42 57 41 45 -1 46 0 57 38
13 44 4 64 -34 76 -12 3 -30 13 -39 21 -26 23 -44 5 -19 -18 25 -23 27 -57 6
-65 -10 -4 -30 10 -56 40 -48 54 -85 76 -130 76 -26 0 -41 10 -78 50 -45 49
-48 50 -126 61 -110 15 -258 22 -268 13z"/>
<path d="M18357 17539 c-23 -13 -7 -46 30 -60 33 -12 55 5 51 40 -3 29 -47 40
-81 20z"/>
<path d="M6996 16994 c-11 -28 -6 -54 8 -54 21 0 29 17 22 46 -7 27 -21 31
-30 8z"/>
<path d="M6304 16113 c-3 -10 -11 -28 -17 -41 -18 -38 2 -75 45 -86 57 -14 93
23 44 45 -18 9 -26 22 -31 55 -6 46 -30 61 -41 27z"/>
<path d="M6387 15934 c-16 -17 -7 -54 14 -54 16 0 20 5 17 27 -3 26 -18 39
-31 27z"/>
<path d="M17664 15899 c-10 -16 56 -79 83 -79 15 0 38 -15 60 -40 37 -40 93
-57 93 -27 -1 37 -83 117 -121 117 -13 0 -30 9 -37 20 -13 22 -66 28 -78 9z"/>
<path d="M6107 15843 c-4 -3 -7 -14 -7 -23 0 -9 -13 -29 -30 -45 -36 -35 -31
-45 18 -38 52 8 58 15 54 67 -4 43 -17 58 -35 39z"/>
<path d="M17867 15673 c-4 -3 -7 -19 -7 -35 0 -26 3 -29 27 -26 33 4 41 29 18
52 -18 17 -28 20 -38 9z"/>
<path d="M6156 15646 c-3 -13 -15 -27 -25 -31 -19 -6 -36 -33 -27 -42 7 -8
101 67 101 80 0 25 -42 19 -49 -7z"/>
<path d="M10266 15612 c-3 -5 -4 -52 -3 -105 1 -107 18 -128 28 -36 9 94 -4
174 -25 141z"/>
<path d="M17975 15540 c-8 -14 23 -82 35 -75 11 7 13 45 4 69 -7 18 -30 21
-39 6z"/>
<path d="M5794 15309 c-19 -38 -12 -59 21 -59 29 0 40 19 31 54 -9 38 -34 40
-52 5z"/>
<path d="M5642 15098 c2 -18 10 -21 42 -21 47 0 59 19 21 33 -45 17 -67 13
-63 -12z"/>
<path d="M15756 14731 c-14 -22 6 -31 64 -31 57 0 85 12 55 24 -35 13 -113 18
-119 7z"/>
<path d="M10245 13779 c-9 -14 -7 -15 40 -22 43 -7 72 4 61 22 -9 14 -93 14
-101 0z"/>
<path d="M5034 11406 c-9 -24 0 -61 16 -61 22 0 38 54 20 65 -21 13 -30 12
-36 -4z"/>
<path d="M18746 11285 c-18 -42 -37 -44 -78 -10 -36 30 -64 32 -78 5 -15 -27
-6 -38 35 -46 68 -12 68 -64 0 -64 -35 0 -51 13 -57 45 -2 12 -13 21 -26 23
-27 4 -31 -41 -6 -70 21 -22 -6 -38 -31 -18 -15 12 -83 -47 -85 -72 0 -5 -13
-8 -28 -8 -20 0 -39 -12 -66 -42 -25 -27 -47 -41 -65 -42 -22 -1 -27 -6 -31
-36 -6 -43 -33 -48 -38 -7 -4 32 -24 35 -78 12 -33 -13 -34 -17 -32 -57 l3
-43 -49 0 c-42 -1 -52 -5 -77 -33 -32 -36 -38 -37 -86 -20 -27 10 -38 10 -53
0 -11 -7 -28 -12 -38 -12 -10 0 -38 -20 -61 -45 -23 -25 -49 -45 -57 -45 -8 0
-28 -7 -44 -15 -25 -13 -33 -13 -74 2 -44 17 -46 17 -75 -5 -21 -15 -44 -22
-75 -22 -25 0 -47 -4 -50 -9 -10 -15 22 -33 56 -31 72 4 98 0 98 -15 0 -17 -9
-18 -228 -19 -104 -1 -147 2 -154 12 -7 7 -36 12 -79 12 -69 0 -92 -14 -43
-26 30 -8 29 -33 -4 -45 -16 -6 -27 -4 -40 9 -25 25 -303 30 -322 6 -20 -23
-316 -19 -329 4 -9 15 -13 15 -32 3 -19 -11 -28 -10 -71 10 -42 20 -53 21 -82
11 -18 -7 -53 -12 -79 -12 -42 0 -46 -2 -49 -27 -5 -42 -35 -42 -46 -1 -10 39
-36 45 -38 8 -1 -14 -18 -43 -38 -64 -20 -22 -36 -48 -36 -57 0 -19 -73 -89
-94 -89 -25 0 -36 -24 -23 -50 12 -23 17 -25 73 -22 46 3 63 0 67 -11 11 -28
-9 -39 -64 -36 -69 5 -77 -1 -85 -62 -6 -48 -8 -50 -34 -44 -42 9 -71 -67 -49
-129 29 -80 -11 -118 -68 -64 -19 17 -26 19 -36 9 -9 -10 -8 -15 7 -27 19 -14
19 -14 -3 -38 -21 -23 -22 -24 -4 -30 29 -9 3330 -2 3340 7 4 5 -8 23 -27 41
l-35 32 0 149 c0 83 -4 164 -8 181 -6 23 -3 35 12 53 24 28 32 65 28 141 l-2
55 33 -3 c39 -3 47 39 11 58 -24 13 -20 44 14 112 16 31 22 63 23 115 1 61 5
76 23 90 19 17 21 28 22 178 2 279 1 286 -67 246 -20 -12 -38 -21 -39 -19 -1
2 -8 13 -14 26 -20 37 -67 30 -85 -13z m74 -70 c21 -25 -4 -45 -42 -34 -38 11
-42 14 -35 34 8 20 61 20 77 0z"/>
<path d="M5260 11280 c0 -5 -13 -10 -28 -10 -18 0 -37 -9 -50 -25 -27 -31 -47
-32 -67 -1 -24 36 -52 39 -73 8 -26 -40 -24 -366 3 -386 14 -10 16 -20 11 -42
-24 -98 -18 -147 13 -105 21 28 46 20 37 -12 -6 -24 10 -100 30 -140 8 -16 14
-55 14 -87 0 -32 5 -71 11 -87 15 -38 23 -168 24 -353 l0 -155 -28 -13 c-22
-11 -26 -17 -17 -26 12 -12 3121 -23 3257 -11 71 7 106 29 65 41 -47 15 -68
52 -43 77 16 16 14 62 -3 76 -23 19 -49 -4 -66 -57 -22 -68 -50 -70 -50 -4 0
45 3 50 25 56 14 4 25 12 25 20 0 23 -22 76 -31 76 -5 0 -9 10 -9 23 0 13 -11
33 -24 44 -22 19 -23 24 -14 84 11 72 0 89 -59 89 -28 0 -33 4 -33 24 0 13
-10 30 -22 38 -21 14 -22 18 -10 52 11 31 11 39 -2 58 -9 12 -16 30 -16 40 0
30 -46 15 -62 -19 -9 -22 -66 -51 -77 -40 -15 15 -14 27 4 27 9 0 15 9 15 25
0 30 -16 33 -25 5 -8 -25 -66 -28 -85 -5 -20 24 -190 21 -221 -4 -32 -25 -323
-26 -339 -2 -10 17 -307 17 -324 0 -18 -16 -167 -11 -187 7 -29 27 -110 27
-132 1 l-17 -22 -31 35 c-22 25 -29 43 -26 62 3 22 -2 29 -22 36 -38 14 -233
34 -253 27 -11 -4 -24 2 -39 19 -13 14 -31 26 -41 26 -10 0 -30 7 -43 16 -13
9 -30 14 -37 11 -7 -2 -26 2 -41 10 -15 8 -36 11 -46 8 -18 -6 -45 13 -53 36
-2 6 -43 17 -92 24 -48 7 -89 15 -90 17 -1 1 -13 19 -26 38 -13 19 -25 37 -27
39 -2 3 -14 -6 -27 -18 -28 -26 -51 -19 -42 12 7 26 -50 87 -81 87 -30 0 -73
45 -73 76 0 20 -10 29 -54 48 -30 13 -59 34 -66 45 -14 27 -47 27 -55 0 -10
-32 -30 -16 -27 22 3 38 -17 60 -47 52 -10 -3 -22 0 -25 6 -9 14 -56 15 -56 1z
m88 -1329 c4 -29 -9 -44 -31 -35 -17 6 -23 44 -10 58 14 14 38 0 41 -23z"/>
<path d="M6910 10610 c-13 -9 -13 -11 0 -20 25 -16 100 -13 100 5 0 9 -9 15
-22 15 -13 0 -32 3 -43 5 -11 3 -27 1 -35 -5z"/>
<path d="M4180 9526 c-23 -61 29 -270 117 -471 70 -159 84 -185 103 -195 14
-8 699 -12 2293 -14 1249 -2 2306 -7 2348 -11 148 -14 168 64 51 207 -31 38
-71 93 -89 122 -17 28 -54 77 -82 109 -28 32 -57 70 -65 85 -22 43 -138 148
-176 160 -25 8 -637 13 -2240 15 -1213 3 -2215 8 -2227 12 -19 6 -24 2 -33
-19z"/>
<path d="M19741 9533 c-17 -11 -35 -13 -77 -8 -38 4 -4186 10 -4361 5 -21 0
-71 -49 -127 -125 -31 -40 -74 -93 -96 -117 -46 -50 -84 -102 -102 -138 -6
-14 -24 -38 -39 -55 -54 -60 -120 -169 -117 -194 4 -32 50 -65 90 -64 18 1
1079 2 2358 4 l2325 3 22 22 c11 12 30 50 41 85 12 35 37 102 56 149 20 47 36
93 36 104 0 10 8 33 19 50 10 17 21 51 25 75 4 24 13 56 21 72 26 49 19 90
-19 121 -31 25 -35 26 -55 11z"/>
<path d="M4608 8470 c-35 -21 -18 -114 37 -207 19 -32 44 -78 56 -103 12 -25
34 -63 49 -85 16 -22 31 -57 34 -77 4 -21 15 -43 26 -51 10 -7 22 -25 25 -40
4 -14 14 -32 22 -38 8 -7 20 -27 28 -46 8 -19 22 -33 32 -34 10 -1 1031 -1
2268 -1 1238 0 2290 -3 2338 -6 109 -9 116 -3 127 100 9 80 2 131 -34 253 -14
44 -28 97 -31 117 -4 21 -14 43 -22 49 -7 7 -25 35 -38 64 -14 28 -35 61 -49
74 l-24 22 -2348 4 c-1292 2 -2378 6 -2414 9 -39 4 -72 2 -82 -4z"/>
<path d="M14785 8470 c-132 -3 -248 -9 -257 -15 -17 -10 -68 -80 -68 -93 0 -4
-14 -34 -31 -66 -81 -154 -120 -550 -51 -520 12 5 4244 18 4690 14 7 0 18 12
24 28 7 15 24 41 38 58 48 60 60 78 60 90 0 6 15 31 33 55 19 24 45 69 60 99
14 30 35 71 46 90 30 54 60 140 67 190 11 83 31 79 -401 68 -376 -9 -3926 -7
-3955 3 -8 2 -123 2 -255 -1z"/>
<path d="M4464 8446 c-8 -21 -1 -49 13 -53 6 -2 14 5 17 15 12 36 -17 72 -30
38z"/>
<path d="M5243 7415 c-19 -13 -23 -26 -23 -70 0 -73 7 -88 85 -175 36 -41 72
-90 80 -107 8 -18 18 -33 22 -33 4 0 37 -37 73 -81 36 -44 84 -103 108 -130
23 -28 54 -69 68 -91 14 -22 66 -82 114 -132 49 -50 107 -115 130 -144 23 -29
51 -57 62 -63 11 -6 24 -23 29 -39 6 -15 36 -49 68 -74 32 -26 112 -102 178
-169 109 -110 216 -212 342 -323 24 -21 58 -53 75 -70 17 -18 45 -39 61 -47
17 -8 59 -42 95 -74 36 -32 94 -81 130 -109 36 -27 74 -58 84 -68 11 -11 53
-42 95 -70 42 -27 98 -67 124 -88 27 -21 54 -38 61 -38 7 0 21 -10 32 -21 19
-21 64 -54 129 -94 18 -11 43 -28 56 -38 46 -36 161 -107 262 -163 56 -31 116
-67 132 -79 39 -28 329 -184 370 -198 11 -4 43 -20 70 -36 100 -56 226 -121
237 -121 5 0 23 -11 39 -24 16 -13 51 -29 78 -35 27 -6 64 -19 83 -30 79 -49
149 -35 164 33 3 17 10 36 15 41 4 6 11 82 15 168 4 87 11 160 16 163 4 3 8
23 8 45 0 22 10 86 22 142 26 127 27 216 1 281 -19 47 -22 49 -89 71 -87 29
-193 71 -208 84 -6 6 -50 26 -96 46 -47 20 -94 44 -105 54 -11 10 -31 21 -45
25 -40 10 -120 64 -120 82 0 44 19 57 78 50 32 -3 98 -8 147 -11 50 -3 150
-10 224 -16 273 -23 337 6 390 181 5 19 17 58 26 85 9 28 27 86 40 130 12 44
32 100 43 125 32 67 29 129 -7 164 l-29 27 -958 -4 c-895 -5 -962 -4 -1005 12
-43 17 -249 174 -249 190 0 4 -29 26 -65 49 -69 44 -86 82 -50 112 16 14 -5
14 1885 7 l585 -2 17 52 c13 37 19 101 24 215 3 108 12 191 25 244 22 95 24
143 6 168 -12 17 -117 18 -2077 20 -1136 2 -2085 7 -2110 10 -34 5 -51 3 -67
-9z"/>
<path d="M18550 7419 c-69 -4 -1000 -7 -2069 -8 -1803 -1 -1945 -2 -1963 -17
-23 -22 -24 -123 -1 -279 8 -60 18 -163 22 -228 9 -170 -3 -163 272 -168 263
-5 1049 0 1664 9 302 5 479 4 514 -3 101 -19 93 -66 -24 -147 -39 -26 -90 -67
-115 -90 -59 -56 -98 -84 -171 -119 l-59 -29 -957 7 c-1088 7 -983 16 -991
-83 -5 -56 17 -151 75 -329 39 -119 62 -207 63 -233 0 -50 190 -72 455 -53
326 23 320 23 345 3 32 -26 21 -68 -23 -87 -18 -7 -59 -28 -92 -47 -33 -18
-94 -46 -135 -62 -41 -16 -97 -39 -125 -52 -27 -12 -66 -25 -86 -29 -21 -3
-43 -13 -50 -22 -8 -9 -46 -31 -85 -49 -39 -18 -74 -40 -78 -49 -9 -24 -7
-122 3 -164 17 -68 31 -156 46 -299 8 -79 18 -149 22 -155 4 -7 10 -63 14
-125 3 -62 10 -117 16 -123 25 -25 80 -27 140 -4 32 13 74 26 94 29 21 4 48
15 62 26 14 11 32 20 40 20 9 0 86 36 173 80 87 44 163 80 168 80 11 0 125 66
201 116 28 18 70 42 95 53 25 12 70 39 100 61 30 22 82 54 115 71 33 16 76 42
96 57 109 81 169 122 177 122 9 0 30 16 127 93 17 13 41 30 55 37 14 7 66 44
116 81 49 38 95 69 102 69 6 0 26 14 44 30 32 30 72 63 218 185 40 33 97 81
126 108 30 26 58 47 63 47 5 0 60 50 123 111 62 61 130 120 150 130 21 11 38
24 38 30 0 5 73 84 163 174 222 223 394 405 415 437 9 14 75 90 145 169 70 78
138 159 150 180 12 22 29 41 37 44 8 3 31 30 50 60 19 31 52 77 73 103 79 97
106 182 70 214 -25 22 -71 26 -213 17z"/>
<path d="M7668 4655 c-13 -30 -4 -44 20 -29 23 15 27 40 7 48 -10 4 -19 -3
-27 -19z"/>
</g>
</svg>
